<svg id="Ebene_1" data-name="Ebene 1" xmlns="http://www.w3.org/2000/svg" xmlns:xlink="http://www.w3.org/1999/xlink" viewBox="0 0 1436.95 397.42"><defs><style>.cls-1,.cls-7,.cls-8{fill:none;}.cls-2{fill:#1d1d1b;}.cls-3{clip-path:url(#clip-path);}.cls-4{fill:#c61a27;}.cls-5{fill:#5a0f09;}.cls-6{clip-path:url(#clip-path-2);}.cls-7,.cls-8{stroke:#1d1d1b;}.cls-7{stroke-width:1.7px;}.cls-8{stroke-width:1.77px;}.cls-9{clip-path:url(#clip-path-3);}.cls-10{fill:#a61916;}</style><clipPath id="clip-path"><rect class="cls-1" x="679.16" width="757.78" height="397.42"/></clipPath><clipPath id="clip-path-2"><rect class="cls-1" x="-766.94" width="2383.82" height="397.42"/></clipPath><clipPath id="clip-path-3"><rect class="cls-1" y="96" width="170.02" height="240.1"/></clipPath></defs><polygon class="cls-2" points="1104.45 397.23 1104.45 0 1105.66 0 1105.66 397.23 1104.45 397.23 1104.45 397.23 1104.45 397.23"/><path class="cls-2" d="M1132.69,326.77c1.91,6.35,5.7,9.26,12.33,9.26,5.61,0,10.54-3.25,10.54-9.16,0-5-2-7.38-11.7-11-6.38-2.4-7.06-4.08-7.06-6.43,0-4.08,2.79-6.38,6.82-6.38,4.42,0,7.1,2.68,8.35,6.52l2.73-.82a10.91,10.91,0,0,0-11.08-8.28c-6.42,0-10,3.82-10,9,0,11.47,18.77,7.81,18.77,17.13,0,4.17-2.6,6.9-6.92,6.9-5.46,0-8.54-2.3-9.88-7.57l-2.92.9Zm50.6,8.78V333h-17.51v-14.1h12v-2.59h-12V303.51h16.6v-2.59h-19.76v34.63Zm6.29,0h3.16V300.92h-3.16v34.63Zm9.74-32h10.26v32h3.16v-32H1223v-2.59h-23.69v2.59Zm55.8,32V333h-5.75V300.45h-2l-7.78,2.53v1.88l6.62-1V333h-5.94v2.59Zm3.36-6.42c2,4.7,6,6.9,11.65,6.9,6.86,0,11.84-3,11.84-10.26,0-4.75-2.77-7.29-6.61-8.73,4-1.83,5.56-4.18,5.56-8.16,0-6.47-6-8.43-10.45-8.43-3.79,0-7.2,1.52-10.46,5.46l2.26,1.63c2.39-3,4.74-4.51,8-4.51,4.65,0,7.53,1.82,7.53,6.14,0,4.61-3.26,6.72-9.5,6.72h-2.59v2.59h3.16c6.53,0,10,2.4,10,7.38s-2.73,7.58-8.54,7.58c-4.5,0-7.14-1.34-9.25-5.75l-2.54,1.44Zm41.42-28.68c-6.57,0-10.84,3-10.84,8.76,0,3.79,2.3,6.58,6.62,8.11-6,2.69-8,5.86-8,9.31,0,6.91,5,9.4,12.18,9.4s12.18-2.49,12.18-9.4c0-3.45-2-6.62-8-9.31,4.32-1.53,6.62-4.32,6.62-8.11,0-5.8-4.26-8.76-10.84-8.76Zm-9,26.18c0-3.74,3.35-5.66,9-8,5.67,2.31,9,4.23,9,8,0,4.71-3.93,6.81-9,6.81s-9-2.1-9-6.81Zm1.33-17.56c0-4.08,3.17-6,7.68-6s7.68,2,7.68,6c0,3.75-3.36,5.85-7.68,7-4.32-1.16-7.68-3.26-7.68-7Zm46.86-5.76a13.39,13.39,0,0,0-8.19-2.86c-9.8,0-13.82,10.31-13.82,19,0,8,2.25,16.55,11.9,16.55,6.28,0,11.7-4.12,11.7-10.74,0-6.43-4.08-11.41-11.13-11.41a12.91,12.91,0,0,0-9.31,4.6c0-6.57,2.69-15.45,10.6-15.45,2.64,0,5,.58,6.82,2.64l1.43-2.36Zm-1.58,21.46c0,5.36-3.07,8.67-8.44,8.67s-8.73-4-8.73-10.21c0-1.25,3.59-6.77,8.68-6.77,5.47,0,8.49,3.55,8.49,8.31Z"/><path class="cls-2" d="M1134.85,253.18h16.59l-18.08,29.45v2.59h22.25v-2.59h-18.32l18.08-29.36v-2.68h-20.52v2.59Zm27.77-2.59V273.9c0,7.87,4.12,11.8,12.52,11.8s12.52-3.93,12.52-11.8V250.59h-3.17v23.6c0,6.62-3.21,8.92-9.35,8.92s-9.36-2.3-9.36-8.92v-23.6Zm34.63,34.63h3.16V273.66l6.53-7.53,11,19.09h3.54L1209,263.83l11.18-13.24h-3.89l-15.83,18.8v-18.8h-3.16v34.63Zm29.31-34.63V273.9c0,7.87,4.12,11.8,12.52,11.8s12.52-3.93,12.52-11.8V250.59h-3.16v23.6c0,6.62-3.22,8.92-9.36,8.92s-9.36-2.3-9.36-8.92v-23.6Zm34.63,34.63h3.17v-32h.09l18.52,32h3.26V250.59h-3.16v28.88h-.1l-16.46-28.88h-5.32v34.63Zm37.8,0V268.53h12.52v-2.59H1299V253.18h17.17v-2.59h-20.33v34.63Zm20.2-32h10.26v32h3.16v-32h10.27v-2.59h-23.69v2.59Z"/><g class="cls-3"><path class="cls-2" d="M1140.28,235V219.49h13.92V235h6.91V198.87h-6.91v14.41h-13.92V198.87h-6.9V235Zm53.72,0V229.2h-17.57V219.09h12.36v-5.81h-12.36v-8.61h17v-5.8h-23.93V235Zm13.66,0V198.87h-6.9V235Zm8.82,0h12c9.57,0,16.17-5.31,16.22-18.07s-6.65-18.07-16.22-18.07h-12V235Zm6.9-30.34H1228c7.91,0,9.77,5.8,9.77,12.27s-1.86,12.26-9.77,12.26h-4.61V204.67ZM1274.65,235V229.2h-17.57V219.09h12.36v-5.81h-12.36v-8.61h17v-5.8h-23.93V235Zm28.43,0V229.2h-15.72V198.87h-6.9V235Zm5.22,0h13.31c9.21,0,13.16-3.9,13.16-9.51s-1.6-7.66-6.3-9.57c4-1.54,5.5-4.45,5.5-8.2-.4-6.46-5-8.86-12.26-8.86H1308.3V235Zm6.9-16.13h6.91c4,0,5.76,1.81,5.76,5.27s-1.75,5.25-5.76,5.25h-6.91V218.88Zm0-14.41h6.91c3.31,0,5,1.9,5,4.4s-1.65,4.41-5,4.41h-6.91v-8.81ZM1366.46,235V229.2h-17.57V219.09h12.37v-5.81h-12.37v-8.61h17v-5.8H1342V235Zm12.72,0V220.29h6L1392,235h7.65l-7.95-16.13c4.4-1.24,6.65-4.85,6.6-9.3,0-6-3.35-10.71-11.56-10.71h-14.41V235Zm0-30.54h6.31c3.8,0,5.86,1.7,5.86,5.11s-1.66,5.1-7.06,5.1h-5.11V204.47Zm52.26,3.1c-1.69-5.3-5.9-9.2-13.11-9.2-11.57,0-15.07,9.91-15.07,19.12,0,10.21,4.55,18,14.37,18a11.4,11.4,0,0,0,9.41-4.2V235h5V216.74h-13.52v5.8h6.86a7.13,7.13,0,0,1-7.56,7.16c-4.81,0-7.67-4.81-7.67-12.41,0-8,2.51-13.12,7.62-13.12,3.6,0,5.61,1.5,7.26,5.11l6.4-1.71Z"/><path class="cls-2" d="M1154.2,170.07c0,5.86-2.3,7.91-7,7.91s-7-2-7-7.91V147.14h-6.9v22.63c0,10.56,6.5,14,13.86,14s13.87-3.46,13.87-14V147.14h-6.91v22.93Zm21.68,13.21V157.56h.09l14.78,25.72h6.65V147.14h-6.5v24.63h-.1l-14.22-24.63h-7.2v36.14Zm37.34,0V147.14h-6.9v36.14Zm15,0h7.71l9.56-36.14h-6.81l-6.7,26.63h-.1l-6.41-26.63h-6.81l9.56,36.14Zm46.46,0v-5.8h-17.57V167.36h12.36v-5.8h-12.36V153h17v-5.81h-23.93v36.14Zm12.71,0V168.57h6l6.81,14.71h7.66l-8-16.12c4.4-1.24,6.64-4.85,6.6-9.31,0-6-3.35-10.71-11.56-10.71h-14.42v36.14Zm0-30.53h6.32c3.8,0,5.85,1.7,5.85,5.1s-1.65,5.11-7.06,5.11h-5.11V152.75Zm49.87,2.05c-2.16-5.26-7-8.16-12.77-8.16-6.26,0-11.66,3.66-11.66,10.11,0,11.11,18.63,9.71,18.63,16.83,0,3.5-2.66,4.8-6.12,4.8-4,0-6.21-2.25-7.86-5.66l-5.7,2.51c2,5.25,7.6,8.56,13.51,8.56,8,0,12.67-3.7,12.67-11.11,0-11.72-18.63-10.42-18.63-16.63,0-2.8,2.16-4,5.16-4a6.64,6.64,0,0,1,6.46,4.7l6.31-1.95Zm15.06,28.48V147.14h-6.9v36.14Zm5.91-36.14V153h9.47v30.33h6.9V153H1384v-5.81Zm39.5,7h.1l4.06,15.67h-8.41l4.25-15.67Zm-14.77,29.18h6.87l2.15-7.8h11.41l2,7.8h6.86L1402,147.14h-8.61l-10.42,36.14Zm6.92-44.45v5.81h6v-5.81Zm9.51,0v5.81h6v-5.81Zm11.76,8.31V153h9.47v30.33h6.9V153H1437v-5.81Z"/><path class="cls-4" d="M877.84.09C768.12.09,679.17,89,679.17,198.76s89,198.66,198.67,198.66,198.67-88.94,198.67-198.66S987.55.09,877.84.09Z"/><path class="cls-5" d="M856,94.12h2.17V91.93h2.2V89.75h-2.2V87.57H856v2.18h-2.18v2.18H856v2.19Zm38.59,126.94h2.18v-1.75h1.74v-2.17h-1.74v-1.75h-2.18v1.75h-1.75v2.17h1.75v1.75ZM847.69,94.12h2.17V91.93h2.19V89.75h-2.19V87.57h-2.17v2.18H845.5v2.18h2.19v2.19Zm48.81,192c2.42,15.84,3,30.72,4.72,38.42l2.12-.49c-1.69-7.27-2.26-22.31-4.7-38.26l-2.14.33Zm-21.93-86.77c-2.18-1-4.56.47-5.41,1.69l.74.73a3.92,3.92,0,0,1,3.05-1.68,3.54,3.54,0,0,1,3.35,3.16v2.57h1.05v-2.71a4.63,4.63,0,0,0-2.78-3.76Zm6.6,0a4.67,4.67,0,0,0-2.79,3.76v2.71h1.06v-2.57a3.54,3.54,0,0,1,3.36-3.16,3.94,3.94,0,0,1,3.05,1.68l.73-.73c-.84-1.22-3.23-2.68-5.41-1.69Zm1.77,2.34c-1.87,0-2.64.75-2.64,1.44l2.18,0a.74.74,0,0,0-.48.67.88.88,0,0,0,1.74,0,.76.76,0,0,0-.46-.66c.75,0,1.5,0,2.12,0,0-.76-1.12-1.53-2.46-1.53Zm16.95,77.1ZM925.68,133.4l-2.1-3.37-2.11,3.37,2.11,3.38,2.1-3.38Zm-2.19,77a5.3,5.3,0,1,0-5.31-5.29,5.3,5.3,0,0,0,5.31,5.29Zm0-9.48a4.19,4.19,0,1,1-4.2,4.19,4.19,4.19,0,0,1,4.2-4.19Zm-1,7h2.17v-1.74h1.74V204h-1.74v-1.75h-2.17V204h-1.75v2.17h1.75v1.74ZM884.35,94.12h2.18V91.93h2.19V89.75h-2.19V87.57h-2.18v2.18h-2.18v2.18h2.18v2.19Zm-7.59,0h2.17V91.93h2.18V89.75h-2.18V87.57h-2.17v2.18h-2.19v2.18h2.19v2.19Zm-7.76,0h2.17V91.93h2.19V89.75h-2.19V87.57H869v2.18h-2.19v2.18H869v2.19Zm4.17,107.44c-1.85,0-2.63.73-2.63,1.44.52,0,1.34,0,2.22,0a.74.74,0,0,0-.49.68.88.88,0,0,0,1.74,0,.74.74,0,0,0-.47-.67c.74,0,1.49,0,2.1,0,0-.74-1.11-1.51-2.47-1.51Zm20.1,78.18a5.83,5.83,0,0,0-.32-2,1.72,1.72,0,0,0-1.55-1.14,3.33,3.33,0,0,0-2.07,1.14c-.56.53-1.13,1.15-1.7,1.69a10.58,10.58,0,0,1-7.26,2.93,10.07,10.07,0,0,1-6.25-2.16c-1.42-1.17-2.44-2-3.76-2a2.15,2.15,0,0,0-2,1.39,7.19,7.19,0,0,0-.41,2.71v.24c0,.68.4,2.94,1,6.38.89,5.1,2.32,12.48,3.86,19.08.77,3.3,1.56,6.4,2.34,8.94a22.31,22.31,0,0,0,2.33,5.66,5,5,0,0,0,4,2.36h0c2.15,0,4-1.7,4.66-4.27.5-2,3.27-14.22,5.18-25.2a.74.74,0,0,0,0-.14h0c.57-3.28,1.06-6.43,1.4-9.17v0h0a55.51,55.51,0,0,0,.46-5.88c0-.19,0-.37,0-.53Zm-9.18,40.39c-.53,1.92-1.61,2.64-2.55,2.64a2.85,2.85,0,0,1-2.26-1.44,6.22,6.22,0,0,1-.61-1.09c2.47-2.22,5.16-6.71,7.57-11.48.22-.42.42-.85.62-1.27-1.3,6.35-2.47,11.51-2.77,12.64Zm.21-12.35A48,48,0,0,1,877.82,318c-.43-1.25-.89-2.75-1.34-4.4,0,0,0-.08,0-.11a54.35,54.35,0,0,0,12.38-16.78,71.24,71.24,0,0,1-4.54,11Zm6.39-22.09c-1.5,5.05-4.91,15.94-14.86,25.44-1.33-5.24-2.64-11.52-3.66-16.88s-1.82-10.09-2-11.41a28.83,28.83,0,0,0,7.55,12.4l1.43-1.64a20.37,20.37,0,0,1-3.71-4.53,12.79,12.79,0,0,0,3.5.46c3.78,0,7.65-1.28,9.73-3.29l-1.54-1.53c-1.33,1.37-4.94,2.67-8.19,2.64a7.76,7.76,0,0,1-5.36-1.68,22.83,22.83,0,0,1-1.59-4.4c.24.18.48.39.74.62l0,0a12.21,12.21,0,0,0,7.59,2.62,12.73,12.73,0,0,0,8.75-3.52c.65-.61,1.23-1.25,1.71-1.69l.22-.21a6.39,6.39,0,0,1,0,.68c0,.15,0,.31,0,.47a48.58,48.58,0,0,1-.41,5.42Zm-29.35-7c-1.81,11.12-3.75,28.46-11.73,43l1.9,1.05c8.25-15,10.17-32.64,12-43.67l-2.14-.35Zm2.28,22.94c-.34,9.1-1.49,18.28-5.08,22.34l1.65,1.42c4.29-5.07,5.19-14.45,5.6-23.68s.15-18.34,1.39-22.09l-2.06-.68c-1.44,4.56-1.11,13.53-1.5,22.69ZM873.3,58.5l-2.11-3.37-2.11,3.37,2.11,3.37,2.11-3.37Zm56-35.45-4.78-1.41L923,26.93l-5.28-1.56-1.42,4.78,5.29,1.56L920,37l4.78,1.42,1.57-5.29,5.28,1.56,1.42-4.78-5.29-1.56,1.57-5.3Zm32.1,144.85-2.1-3.37-2.11,3.37,2.11,3.37,2.1-3.37Zm95,3.58.18,1.39-12.27,1.6a1.19,1.19,0,0,1-1.15-.47l-.15,0a27,27,0,0,1-2.11,5l3.74,2.77.41-.56c-1.33-.85-.94-1.51-.09-3.42l12.07-1.57.35,2.75,1.74.55-.45-3.51,5.17-.68-.05-.37a12.94,12.94,0,0,1-6.71-3.63l-.68.09Zm2.44-33.94-4.39-1.65a13.17,13.17,0,0,1-1.26.68,34.15,34.15,0,0,0,4,2.66,8.55,8.55,0,0,0,1.66-1.69ZM940.58,258.18v2l4.94-3.24,2.06,2.6-5.77,4.4,1,1.52,5.92-4.53,1.38,1.61-2.26,1.94,1.22,1.22,3.79-3-1.77-2.07,3.28-3L953,253.19l1.06-.72v-1.16h-3l1.68,5.64-1.1.87-2-2.52v-5.42h-4.62v1.59l1,1.16-1,.77-3-3.47h-1.44v.92l3.91,4.59-3.81,2.75Zm-.7-90.37,2.11,3.37,2.11-3.37L942,164.44l-2.11,3.37Zm118.45,17.44-12.64.62c-1,0-1.16-.54-1.16-.54h-.17l-2.22,3.32,2.68,2.39h.15a3.12,3.12,0,0,1,.64-1.75l12.87-.62a1.1,1.1,0,0,1,1,.45l.18,0,2.38-3.22a14,14,0,0,1-2.67-2.51h-.14s.14,1.82-.9,1.87Zm-20.18-35.54-.15,0a26.94,26.94,0,0,1-1.38,5.28l4.08,2.21.35-.61c-1.45-.66-1.16-1.36-.58-3.37l11.72-3.25.75,2.67,1.8.29-1-3.4,5-1.4-.1-.36a13.06,13.06,0,0,1-7.14-2.65l-.67.18.38,1.36-11.93,3.3a1.17,1.17,0,0,1-1.19-.29Zm4.74,22.26.15,0c-.15-.75,0-1.84.29-1.9l13-2.6a1.14,1.14,0,0,1,1.17.38l.16,0a31.2,31.2,0,0,1,.52-4.71c-2.32-.9-2.87-5.48-6.05-4.85l-10.39,2.09a1.13,1.13,0,0,1-1-.3l-.18,0-1.74,4.18,2.75,2.22-1.63,3.43a18.59,18.59,0,0,1,3,2.09Zm-.49-8.29,12.8-2.57a11.83,11.83,0,0,0-.37,3.13l-12,2.4-1.21-1,.78-1.94Zm9.11,41.09a1.11,1.11,0,0,1,1,.53h.19l1.75-3.58,4.93,3.46a18.53,18.53,0,0,1,3.09-4.13,32,32,0,0,1-2.48-5.94l-5.37-.13a1.16,1.16,0,0,1-1-.62h-.16l-2.28,4-6.18-4.27a15.89,15.89,0,0,1-2.43,4.64,28.52,28.52,0,0,1,3,5.9l6,.13Zm3-6.35,5.81.14.14.27a27.38,27.38,0,0,0-3.21,4l-3.85-2.81,1.11-1.64Zm-10,2.37a24.31,24.31,0,0,0,2.51-4.26l5,3.36-.78,1.5-6.41-.15-.27-.45Zm-50.81-29.61,2.1-3.37-2.1-3.37-2.11,3.37,2.11,3.37ZM850.4,383.93a9.33,9.33,0,0,0,.67,2.27l3.58-3s0-1.12,0-1.43a35.32,35.32,0,0,0-4.26,2.2ZM974.21,167.81l2.11,3.37,2.1-3.37-2.1-3.37-2.11,3.37ZM848.05,375.6c.14-.71,2.18-11.4,2.38-12.42s.79-1,.79-1l0-.17-2.71-2.94-2.95,2.05,0,.14a3.14,3.14,0,0,1,1.56,1L844.69,375a1.11,1.11,0,0,1-.67.86l0,.18,2.57,3.08a14.25,14.25,0,0,1,3.08-2l0-.14s-1.79-.29-1.6-1.32Zm22.79,3.06s1-11.56,1-12.34a1.16,1.16,0,0,1,.7-1v-.16l-4.35-3.43-6.13,3.35S861,377.74,861,378.42a1.11,1.11,0,0,1-.59.93v.18c3.35,2.65,6.11,5,9.48,8.08a13.62,13.62,0,0,1,2.84-2.52v-.15c-.92-.08-5.74-4.4-5.74-4.4l3.87-1.88Zm-6.42-.31L865.61,364l.1-.07,2.73,2-1.13,13.69-.82.44-2.07-1.71Zm-11.18-15.87,0,.14a3.1,3.1,0,0,1,1.59,1L853,376.35a1.13,1.13,0,0,1-.64.89l0,.18,2.7,2.95a14.08,14.08,0,0,1,3-2.12v-.15s-1.8-.21-1.64-1.25c.09-.72,1.66-11.5,1.81-12.51s.75-1,.75-1l0-.17-2.83-2.82-2.86,2.17Zm32.62,3.26a1.1,1.1,0,0,1,.49-1v-.18L882,362.09a56.11,56.11,0,0,1-6,4.11s.11,11.76.12,12.55a1.17,1.17,0,0,1-.59,1.08V380l2.75,2.19,2.41-2.41v-.12l-1.13-.81-.14-14.11.51-.32,2.5,1.54s.12,11.46.12,12.5-.58,1.14-.58,1.14v.17l3.23,2.35,2.5-2.59v-.14a3.17,3.17,0,0,1-1.72-.72s-.13-12.21-.13-12.9Zm58.82-13.18-.62-.41-.89,1.35c-.92,1.22-3.26,3.81-6.75,3.81l-9.51-.14a8.16,8.16,0,0,1-.31,5.06c1.6,0,3.16,0,4.64,0l-.78,1.16v-.06a9.75,9.75,0,0,1-8,4.49c-1.8,0-5.3,0-5.3,0a4.32,4.32,0,0,1,.41,2.15c0,1.85-.81,2.32-.81,2.32h4.41a6,6,0,0,0,2.8-.75c-1.4,2-2.59,4.33-2.59,6.38,0,0,0,.93,0,2.21,1.34-.71,4.41-.48,5.46-.48v-4.4a15.81,15.81,0,0,1,1.66-7.61l3.68-5.5c2.65-.16,5-.62,6.78-1.92v9.33h0a6.31,6.31,0,0,1-3.9,1.86h-4.78a11.58,11.58,0,0,1,0,4.15c2.12,0,3.62-.11,5-.92a13.41,13.41,0,0,0-.36,4,8.52,8.52,0,0,1,4.11,0v-5.61a8.06,8.06,0,0,1,.38-2.88l5.23,0a7.6,7.6,0,0,0,0-.88c-1,0-1.43-.84-1.57-3.11-.06-1-.08-3.58-.09-4.21,0-2.79-.11-6.55,1.51-9,.22-.33.28-.4.28-.4Zm-33.34,17.71,0-.14L907,368.51l3.22-6.78a15.53,15.53,0,0,1-5-1.66,29.65,29.65,0,0,1-5.35,3.93s.72,5.27.82,6a1.12,1.12,0,0,1-.35,1l0,.18,3.82,1.18-2.63,5.4a17.56,17.56,0,0,1,4.55,2.4,31.23,31.23,0,0,1,5.49-3.41s-.64-4.54-.74-5.32a1.19,1.19,0,0,1,.45-1.15ZM904,369.06l-.87-6.35.38-.33a25.78,25.78,0,0,0,4.63,1.8l-2.53,5.41-1.61-.53Zm4,8.79a27.76,27.76,0,0,0-4.5-2.52l2.17-4.26,1.78.84.81,5.75-.26.19Zm-11.68-.16s-.66-11.58-.71-12.37a1.11,1.11,0,0,1,.53-1.09v-.16a27.2,27.2,0,0,1-4.88-2.46l-3,3.53.52.47c1-1.29,1.59-.86,3.43.13l.71,12.15-2.79.16-.66,1.7,3.55-.2.29,5.19.38,0a12.92,12.92,0,0,1,4.1-6.42l0-.69-1.4.09ZM977.12,46.24l1.19-1.8-1.84-1.22L975.27,45l-1.8-1.19-1.23,1.84,1.81,1.2-1.21,1.8,1.85,1.23,1.2-1.8,1.8,1.2,1.23-1.85-1.8-1.2Zm60.14,100.86a3.21,3.21,0,0,1,.07-1.86l12.06-4.57a1.1,1.1,0,0,1,1.08.12l.17-.06,1.26-3.8a13.87,13.87,0,0,1-3.3-1.58l-.14.06s.7,1.69-.29,2.06L1036.35,142c-1,.37-1.27-.15-1.27-.15l-.17.06-1.08,3.85,3.28,1.44.15-.05Zm2.29,134.51c.74-1.37.64-2.28.64-4.09a11,11,0,0,1-5.37,0v5.21a9.83,9.83,0,0,1-.71,4.43,39.12,39.12,0,0,1-4.68-.07l.2,9.64a10.45,10.45,0,0,1-1.45,6.06c-2.38,0-5.06,0-6.08,0a10.85,10.85,0,0,0-6.42,1.84,17.06,17.06,0,0,0,2.14-7.81c0-1.15,0-4,0-6a6.9,6.9,0,0,1,3.85-1.5h4.51a14.3,14.3,0,0,1,0-4.84,11.46,11.46,0,0,0-3.82.41c.73-1.37.64-2.29.64-4.09a11.11,11.11,0,0,1-5.38,0v5.21c0,3.5-.79,4.56-.79,4.56h0l-.1.13c-.93,1.08-2.18,1.25-3.66,1.25v8.26c0,1.66.33,6-.76,8.3l-2.78,4.19.66.38s2.78-5.57,8.46-5.57l12.61-.05a6.56,6.56,0,0,1,.48-4.69l-2.47,0a25.24,25.24,0,0,0,2.62-2.82h0s2.16-2.14,4.61-2.14H1041a13.81,13.81,0,0,1,0-4.84c-3.35,0-4.61.26-6.47,2.43a7.75,7.75,0,0,0,.45-2.49s0-3.36,0-5.39a6.83,6.83,0,0,1,3.86-1.5h4.49a14.11,14.11,0,0,1,0-4.85,11.83,11.83,0,0,0-3.83.41ZM1027.23,120l10.88-5.91.76.2c-.1.83-2.11,4-2.11,4l.09.16a12.64,12.64,0,0,1,3.54.66l.16-.09,1.9-4.23-3.32-1.07.8-3.57a17.56,17.56,0,0,1-3.49-1.1l-.13.07c.36.67.52,1.77.27,1.9l-11.18,6.08a1.19,1.19,0,0,1-1.23,0l-.13.08a28.36,28.36,0,0,1-.15,5.46l4.48,1.22.19-.67c-1.55-.31-1.43-1.06-1.33-3.16ZM1060,219.58c.7-1.27.6-2.08.6-3.73a9.94,9.94,0,0,1-4.82,0v4.67a8.45,8.45,0,0,1-.66,4,9.78,9.78,0,0,1-5.23,1.46c0,.34,0,.6,0,.84,1.11,0,1.6,1.79,1.6,2.88,0,.53.06,1,.06,1.6,0,2.52,0,7.28-1,8.9l-1.42,2.26-6.84,10.33-.06.07-3.74,5.66h0l-.09.13V245.44l1.79-2.7a6.82,6.82,0,0,1,4.09-1.84h3.11a12.33,12.33,0,0,1,0-4.41,13.27,13.27,0,0,0-2.25.13c.76-1.39.66-2.28.66-4.09a11,11,0,0,1-5.29,0v5.11a9.86,9.86,0,0,1-.68,4.33l-1.68,2.54c-.52.59-2,1.78-5.91,1.78,0,.35,0,.6,0,.85,1.11,0,1.61,1.78,1.61,2.87,0,.54.07,12.06.06,12.68,0,2.52,0,7.27-1.06,8.89-.48.78-1.5,2.22-1.5,2.22l.58.36s1.28-1.73,2.81-4c.15-.21.29-.44.44-.67h0s3.11-4.71,8.48-4.71h4.53c-.31-1.41.7-3.1,1.61-4-5.4,0-8.74-.64-11.9,3.36l-.31.47a14.23,14.23,0,0,0,.79-4.57h0l.9-1.35c.73-1,4.1-5.11,9.45-5.11h5.13c-.35-1.58.77-3.45,1.78-4.46a5.93,5.93,0,0,1,3.39-1.33H1063a12.57,12.57,0,0,1,0-4.24,10,10,0,0,0-3.35.36c.65-1.21.57-2,.57-3.59a9.61,9.61,0,0,1-4.71,0v4.56c0,3.07-.68,4-.68,4v0l-.14.16c-4.21,0-7.29-.27-10,1.51l5.09-7.69.29-.44,2.1-3.17c.1-.16.21-.31.31-.46s.06-.11.09-.15l.35-.53a7.23,7.23,0,0,1,4.48-2.13h4.94a14.15,14.15,0,0,1,0-4.77c-3.61,0-5.22.31-7.44,3.09a15.34,15.34,0,0,0,1.14-5.65V225a8.8,8.8,0,0,1,4.47-1.42h3a12.71,12.71,0,0,1,0-4.35,10.24,10.24,0,0,0-3.46.38Zm-38.73-110.76,3.72-2.39a42.5,42.5,0,0,1,7.35,2.12l.15-.1,3-5.79a31.6,31.6,0,0,1-5.54-3.49L1019.21,106a1.18,1.18,0,0,1-1.22.07l-.13.08a35.44,35.44,0,0,1,.37,6.71l4.61.92.09-.7c-1.57-.19-1.48-1.55-1.68-4.3Zm11-7.06-2.48,5s-2.22-.58-3.87-1l6.35-4.08Zm7.38,33a1.12,1.12,0,0,1,1.09.08l.16-.08.1-4,5.92,1.06a18,18,0,0,1,1.06-5.05,31.05,31.05,0,0,1-4.76-4.34l-4.92,2.16a1.18,1.18,0,0,1-1.22-.13l-.15.06-.37,4.6-7.4-1.25a15.93,15.93,0,0,1-.25,5.22,29.71,29.71,0,0,1,5.23,4.08l5.51-2.42Zm0-7,5.33-2.33.23.18a27.8,27.8,0,0,0-1.2,5l-4.68-.92.32-2Zm-7.66,6.67-.44-.29a25.73,25.73,0,0,0,.49-4.94l5.88,1-.07,1.68-5.86,2.57Zm-17.38,94.19h-2.18v1.74h-1.75v2.18h1.75v1.73h2.18v-1.73h1.74v-2.18h-1.74v-1.74Zm50.22-42.86a13.53,13.53,0,0,1-1.4.26,35.47,35.47,0,0,0,3,3.76,9,9,0,0,0,2.09-1.09l-3.67-2.93ZM877.84.09C768.12.09,679.17,89,679.17,198.76s89,198.66,198.67,198.66,198.67-88.94,198.67-198.66S987.55.09,877.84.09ZM899.22,44c1.72.23,3.42.5,5.12.79V56.12l-5.12-7.85V44Zm6.86,298-1.91,1.75v2.18h2.16v2.21h-2.16v2.17H902v-2.17h-2.16v-2.21H902v-2.18h0L900.05,342h-6.62l-1.91,1.75h0v2.18h2.18v2.21h-2.18v2.17h-2.2v-2.17h-2.17v-2.21h2.17v-2.17L887.39,342H881l-1.92,1.76v2.17h2.16v2.21h-2.16v2.17h-2.22v-2.17h-2.17v-2.21h2.17v-2.18h0L874.93,342h-6.59l-1.92,1.76v2.17h2.16v2.21h-2.16v2.17H864.2v-2.17H862v-2.21h2.16v-2.18L862.29,342h-6.58l-1.92,1.76v2.17H856v2.21h-2.17v2.17h-2.21v-2.17h-2.16v-2.21h2.16v-2.15l-2-1.78h-19c.75.75,6.61,5.94,9.61,8.58a154.78,154.78,0,0,1-15.45-4.67.09.09,0,0,0,0,0v-2.8L826,342l3.8-3.33h34a5.52,5.52,0,0,0,3.23,1.9,4.22,4.22,0,0,0,.61,0,10.85,10.85,0,0,0,2.16-.25,5.69,5.69,0,0,0,1.84-.61c.27-.18.91-.53,1.53-1l.07-.07h15.59a9.28,9.28,0,0,0,.9.76,7.34,7.34,0,0,0,4.37,1.49h0a7.39,7.39,0,0,0,3.67-1,2.61,2.61,0,0,0,1-1.28h27l4.87,4.26v3c-.29.13-.68.29-1.07.43q-7,2.47-14.38,4.28l8.42-8.64Zm2.41,10.12a157.09,157.09,0,0,1-61.31,0Zm-46-266.31v9.59H843.44V85.8Zm-11.33-2.18V68a2.39,2.39,0,0,1,.78-1.68,2.77,2.77,0,0,1,1.87-.74A2.44,2.44,0,0,1,856.3,68V83.62ZM858.48,68a2.78,2.78,0,0,1,.62-1.81,1.66,1.66,0,0,1,1.28-.65,2,2,0,0,1,1.45.69,2.61,2.61,0,0,1,.7,1.77h0V83.62h-4.06V68ZM877.7,85.8h12v9.59H865.87V85.8Zm-11.83-2.18V68h0a2.32,2.32,0,0,1,2-2.46,1.87,1.87,0,0,1,1.37.67,2.66,2.66,0,0,1,.68,1.79V83.62Zm6.24,0V68a2.32,2.32,0,1,1,4.63,0h0V83.62Zm6.81,0V68h0a2.25,2.25,0,1,1,4.48,0V83.62Zm-1.08,74.77h-.15a32.17,32.17,0,0,0-6.68.74l6.79-10.41,6.82,10.41a32.6,32.6,0,0,0-6.78-.74Zm5.57,2.72v11.65a24.84,24.84,0,0,0-4.53-.61V160.59a30.79,30.79,0,0,1,4.53.52Zm-6.7-.52v11.56a24.81,24.81,0,0,0-5.14.77v-11.7a31.13,31.13,0,0,1,5.14-.63Zm1.09-15.84L867.86,160q-1,.33-2,.72v-4.09l11.92-18.27,11.86,18.11v4.22c-.62-.24-1.25-.47-1.87-.67l-10-15.25Zm0-16.57,11.86,18v6.33L877.8,134.37l-11.92,18.26v-6.17l11.92-18.28Zm-11.92-16.43a2.61,2.61,0,0,1,2.5-2.29,2.48,2.48,0,0,1,2.39,2.46V135l-4.89,7.5V111.75Zm10.87,2.87v8.55H873V111.92a2.72,2.72,0,0,1,1.28-2.32,5.62,5.62,0,0,1,2.52-.9v2.37a2.08,2.08,0,0,0,0,3.55Zm-.47,11.91L873,131.65V124.6a9.67,9.67,0,0,0,3.33,1.93Zm2.64-15.46v-2.35a5.54,5.54,0,0,1,2.37.88,2.73,2.73,0,0,1,1.29,2.32h0v11.25h-3.66v-8.55a2.08,2.08,0,0,0,0-3.55Zm3.66,13.53v6.87l-3.27-5a9.6,9.6,0,0,0,3.27-1.91Zm2.18,10.17V111.92a2.51,2.51,0,0,1,2.43-2.46,2.57,2.57,0,0,1,2.47,2.33V142.2l-4.9-7.43Zm.84,26.84a31.33,31.33,0,0,1,4.47,1.6v12.14a25.54,25.54,0,0,0-4.47-2V161.61Zm4.06-78H885.6V68h0a2.84,2.84,0,0,1,.62-1.81,1.66,1.66,0,0,1,1.28-.65,2,2,0,0,1,1.46.68,2.59,2.59,0,0,1,.71,1.75V83.62Zm0,13.94V108a4.67,4.67,0,0,0-2.47-.73,4.61,4.61,0,0,0-3.47,1.63,5.66,5.66,0,0,0-1.18-1.11,7.89,7.89,0,0,0-3.62-1.28v-1.21h2v-2.18h-2v-1.91h-2.17v1.91h-2v2.18h2v1.19a8,8,0,0,0-3.76,1.3,5.61,5.61,0,0,0-1.18,1.1,4.54,4.54,0,0,0-3.43-1.62,4.79,4.79,0,0,0-2.5.74V97.56Zm-20.26,64.2V173.6a24.43,24.43,0,0,0-4.38,2.08V163.44a29.75,29.75,0,0,1,4.38-1.68Zm8.44,12.54a22.74,22.74,0,0,1,16,6.56,21.67,21.67,0,0,1,6.61,15.41c0,8.56-5.19,15.59-13.19,19.86,0-.45.1-.92.14-1.42.3-3,3.19-8,3.19-8a3.16,3.16,0,0,0,2.87-1.24,3,3,0,0,0,.11-2.91,3.45,3.45,0,0,0,2.34-2.59,2.93,2.93,0,0,0-2.12-3.27,3.09,3.09,0,0,0,.51-3.16,3.15,3.15,0,0,0-3.35-1.8s.35-1.32-1.33-2.33S887,189,887,189a2.46,2.46,0,0,0-1.4-1.31,4,4,0,0,0-2-.16,2.86,2.86,0,0,0-1.55-.78,3,3,0,0,0-1.84.27,3,3,0,0,0-4.52,0s-.32-.49-1.57-.46a2.23,2.23,0,0,0-1.81,1,2.31,2.31,0,0,0-2-.08,2.81,2.81,0,0,0-1.45,1.55s-.81-.72-2.62.39a2.64,2.64,0,0,0-1.32,2.37,3.05,3.05,0,0,0-3,1.16c-1.37,1.58,0,3.62,0,3.62a2.77,2.77,0,0,0-2,3,3.37,3.37,0,0,0,2.4,3,4.12,4.12,0,0,0,.33,2.86c.54,1,1.93,1.25,3,1.25.22.88,1.67,6.61,2,8.89a.13.13,0,0,1,0,.06c-1.39-.92-2.48-1.68-2.48-1.69-6.4-4.44-9.8-10.92-9.8-17.69a21.62,21.62,0,0,1,6.6-15.41,22.77,22.77,0,0,1,16-6.56Zm46.83-61.12v-2h-2.18v2h-2v2.18h2v6.34L917.06,130V88l12.74,19.27v22.24l-5.13-7.82v-6.35h2v-2.18ZM923.58,124l6.22,9.49V139a4.91,4.91,0,0,0-6.35,1,4.89,4.89,0,0,0-3.71-1.73,5.07,5.07,0,0,0-2.68.8v-5.12l6.52-9.92Zm6.22,18.61v50.83l-5.28-8V142.89h0a2.66,2.66,0,0,1,2.69-2.45,2.61,2.61,0,0,1,2.59,2.19Zm-12.73.27a2.63,2.63,0,0,1,2.67-2.46,2.57,2.57,0,0,1,2.6,2.45v42.53l-5.28,8.06V142.89Zm6.36,44.83,6.37,9.69V216a4.82,4.82,0,0,0-2.54-.76,5.1,5.1,0,0,0-3.84,1.79,5.22,5.22,0,0,0-3.88-1.79,5,5,0,0,0-2.48.69V197.44l6.37-9.72Zm1.09,133.5V272.67h5.28v34.16l-5.09,9v5.52l-.19-.17Zm.19,11.62v2.49h-1.47c.14-.15.28-.29.4-.44a8.12,8.12,0,0,0,1.07-2.05Zm-.19-65.15V219.85h0a2.38,2.38,0,0,1,.8-1.7,2.93,2.93,0,0,1,1.94-.76,2.48,2.48,0,0,1,2.49,2.46h0v47.84Zm-5-50.29a3,3,0,0,1,2,.76,2.27,2.27,0,0,1,.82,1.69v47.84h-5.28V219.23a2.42,2.42,0,0,1,2.48-1.83Zm2.8,55.27v46.67l-.69-.63a19.67,19.67,0,0,1-4.42-5.26l-.07,0,.06-.11h0s-.09-.1-.16-.17V272.67Zm-2.15,47.64c1.61,1.48,3.2,2.77,4,3.59-.39,2.5-.68,5.18-1.23,7.19a6.83,6.83,0,0,1-1.08,2.44,1.59,1.59,0,0,1-1.34.71,1.78,1.78,0,0,1-1.45-.7c-1.32-1.41-1.57-5.61-1.53-7.69v-2l0,0,0-.09c-1.63-.7-3.78-1.26-6-3.44s-4.36-6.07-5.49-13.58c-.39-2.61-.82-8.36-1.46-14.13s-1.47-11.57-2.82-14.7l-2,.88c1.14,2.55,2,8.35,2.64,14.06s1.06,11.43,1.48,14.21c1.17,7.8,3.53,12.2,6.1,14.79a14.69,14.69,0,0,0,5.44,3.42,16.14,16.14,0,0,0-1.76,2.15,55,55,0,0,1-4.27,5.49c-1.58,1.72-3.28,2.85-4.56,2.81a3.17,3.17,0,0,1-2.3-1.15c-3.45-3.56-7.15-5.38-10.69-5.39a10.36,10.36,0,0,0-7,2.84,5.5,5.5,0,0,1-3.62,1.6c-1.26,0-2.73-.56-4.45-2.23-.57-.56-2-1.85-1.73-1.63a10.67,10.67,0,0,0-2.93-2,9.7,9.7,0,0,0-3.13-.57,10.42,10.42,0,0,0-4,.79,24.78,24.78,0,0,0-6.76,4.47,8,8,0,0,1-5.1,2.19,6.74,6.74,0,0,1-5.23-2.87,11.53,11.53,0,0,0-2.74-2.87,4.39,4.39,0,0,0-2.42-.7c3.68-9.2,9.42-26.85,11.13-33.75,1-4,1.86-8,2.95-11.92.83-3,2.17-7.23,5.41-9.45a12.92,12.92,0,0,1,4.27-.81,5.89,5.89,0,0,1,2.09.32,39.81,39.81,0,0,1,6.13,3.53c2.26,1.38,4.65,2.7,7.22,2.72,4.84,0,9.83-2.87,11.29-3.46.44-.2.94-.49,1.49-.81a14.9,14.9,0,0,0,1.83-.92c.11,0,.29-.16.53-.3a7.39,7.39,0,0,1,3-.71,5,5,0,0,1,1.76.3,4.53,4.53,0,0,1,1.91,2c2.08,3.49,3.6,10.38,4.2,13.84.83,4.7,2,12.21,3.61,18.09a28.38,28.38,0,0,0,2.14,5.21,16.71,16.71,0,0,0,1.28,2.11l.23.29a21.63,21.63,0,0,0,4.85,5.79Zm-2.35,15h-7.65a32.22,32.22,0,0,0,2.59-2.88c1.05-1.33,2-2.66,2.76-3.73a19.08,19.08,0,0,0,.5,3.21,7.55,7.55,0,0,0,1.44,3,4.27,4.27,0,0,0,.36.38Zm-17.52,0h-1.57a11.21,11.21,0,0,0-.71-1.84,18.39,18.39,0,0,1,2.28,1.84Zm-5.58-3.16c1.71,2.53,2.13,4.13,2.12,4.94a1.5,1.5,0,0,1-.19.84,1.15,1.15,0,0,1-.09.12h0a5.35,5.35,0,0,1-2.54.64,5.09,5.09,0,0,1-3.09-1.06,12.16,12.16,0,0,1-3-3.4,14.61,14.61,0,0,1-.72-1.33,8,8,0,0,1,4.69-1.56h.17l1.52,4.24,2.05-.72-1-2.72Zm-8.63,3.16h-2.4a8.8,8.8,0,0,0,1.83-1c.16.29.35.64.57,1Zm-7.21,0h-4c.06-.7.11-1.51.15-2.31,0-.13,0-.24,0-.36l.32.29a10.55,10.55,0,0,0,3.54,2.38Zm-8.18.68,1.77-5.33.44.27c0,.49,0,1.21-.08,2a23.1,23.1,0,0,1-.28,3.2,2.17,2.17,0,0,1-.8.87c-.46.36-1,.65-1.36.89a6,6,0,0,1-1.12.33,9.48,9.48,0,0,1-1.72.2l-.35,0a4.07,4.07,0,0,1-2.35-1.76,2.62,2.62,0,0,1-.38-1.55,8.79,8.79,0,0,1,1.76-5,2.24,2.24,0,0,1,.31-.31,7.42,7.42,0,0,1,1.29-.33l.14,0a7.13,7.13,0,0,1,.79-.05,5.91,5.91,0,0,1,1.12.12l.61.2-1.85,5.6,2.06.69Zm-8.4-.68h-4.25a15.82,15.82,0,0,0,1.67-1.23,37.15,37.15,0,0,1,3.23-2.46,10.11,10.11,0,0,0-.65,3.43v.26ZM832,322.78c4.45-4.09,8.79-10.71,11.71-15.95,4.23-7.68,6.87-17.95,8.15-22.14,1.55-5.07,3.38-7.12,5.19-8.71a29.24,29.24,0,0,0-2.23,6c-1.11,4-2,8-3,12-1.8,7.29-8.5,27.72-12,35.66a31.14,31.14,0,0,0-1.57,2.77,3.72,3.72,0,0,1-2.37,1.9,1.67,1.67,0,0,1-.47.07c-.73,0-1.57-.59-2.33-2.6a27.3,27.3,0,0,1-1.16-9Zm.79,12.55h-2v-3.78c.1.33.2.64.31.94a7.75,7.75,0,0,0,1.67,2.84Zm5.67-62.66v38.64a67.94,67.94,0,0,1-5.29,7.13V272.67Zm-5.29-5V219.85a2.3,2.3,0,0,1,.8-1.7,3,3,0,0,1,1.93-.76,2.54,2.54,0,0,1,2.56,2.37v47.93Zm5.29-74.23-5.3-8.05V142.89h0a2.51,2.51,0,0,1,2.56-2.46,3,3,0,0,1,1.93.75,2.36,2.36,0,0,1,.8,1.69v50.59ZM859.56,214a4.19,4.19,0,0,1,4.16,4l-1.24.4.3,1a2,2,0,0,1,.09.57c0,.69-.4.92-1,1a1.17,1.17,0,0,1-1.14-.9l-.11-.35v-.45h1.75v-2.18h-1.75v-1.74h-2.17v1.74h-1.75v2.18h1.75v.39l-2.41.81a4.13,4.13,0,0,1-.7-2.3,4.21,4.21,0,0,1,4.2-4.19Zm-.22-1.09v-1.08c.36.4.75.78,1.14,1.15a5.72,5.72,0,0,0-.92-.08Zm5.71,7.11v-.13l1.08-.35,2.63,7.4-.93.34a3.15,3.15,0,0,0-2.63-1.41,3.41,3.41,0,0,0-3.44,3.31.43.43,0,0,0,0,.05l-1.18.41L858,222.15l1.12-.36a3.34,3.34,0,0,0,2.73,1.41,3.21,3.21,0,0,0,2.16-.81,3.11,3.11,0,0,0,1-2.33Zm-.62-3.88c.41.28,1,.68,1.67,1.12l-1.28.42a5.2,5.2,0,0,0-.39-1.54Zm23.08-9.59-1.13-.07a7.19,7.19,0,0,1-.83,1.89c-.53.86-.55.55-1.53,2a9.53,9.53,0,0,0-3.25-1.72v-1.84h-.93l0,2h-.55v-.47h-.72v.77a.66.66,0,0,1-1.31,0v-.83h-.71v.53H876v-2H874.9v1.88a8.5,8.5,0,0,0-2.91,1.47c-.55-.34-2.73-1.1-3-3.64-.74,0-.65,0-.65,0a38.48,38.48,0,0,1-1.68-6.38c.68-.61,2.49-2.29,2.41-3.13a2.86,2.86,0,0,0,2,.75,3.17,3.17,0,0,0,2.5-1.32c.68.38,3,1.27,4.31-.76.51.51,1.08,1.32,2,1.32a7.1,7.1,0,0,0,2.28-.56,2.88,2.88,0,0,0,2.5,1.32c1.76,0,2-.75,2-.75s2.17,2.24,3,3.09a41.4,41.4,0,0,1-2.19,6.46Zm3.06,13.19v1.67c-.86-1.13-1.71-2.21-2.56-3.25.89-.46,1.73-1,2.55-1.49a5.23,5.23,0,0,0-.22,1.55,5.54,5.54,0,0,0,.23,1.52Zm-1.12,3.77a19.63,19.63,0,0,1-2.49,2.26c-1.36,1.18-3,2.55-3,4.72a3,3,0,0,0,.06.65,33,33,0,0,0,1.56,4.24c1.3,3.11,3.23,7.41,5.07,11.09.91,1.85,1.81,3.53,2.61,4.85a8.68,8.68,0,0,0,2.25,2.81,6.71,6.71,0,0,0,2.65,1.55c2.83.86,5.05,1.45,6.2,3.91l2-.92c-1.64-3.48-4.88-4.27-7.53-5.07l-.29-.11c0-.16,0-.33,0-.53a54.12,54.12,0,0,1,.93-7.76l-2.14-.38a64.42,64.42,0,0,0-.93,7,8.23,8.23,0,0,1-.9-1.4c-1.26-2.44-1.83-6.05-2.12-9.52s-.35-6.81-.71-9l-2.14.37c.37,2.17.37,6.4.87,10.63-.5-1.05-1-2.11-1.47-3.15-1-2.22-1.92-4.35-2.6-6a29.43,29.43,0,0,1-1.13-3,1.31,1.31,0,0,1,0-.27c-.05-.81.89-1.95,2.25-3.06.81-.73,1.72-1.35,2.43-2.13,8.27,11.26,16.55,25.5,18.14,32.34a8.79,8.79,0,0,1,.14,1.57,9.14,9.14,0,0,1-3.81,7.1,14.1,14.1,0,0,1-1.85,1.28c0-.26,0-.54,0-.84a7.71,7.71,0,0,0-1.36-4.68,8.31,8.31,0,0,0-1.76-1.6,9.9,9.9,0,0,0-5-2h0l-.44-.09,0,0h-.08l-.22.06a.13.13,0,0,1-.09,0c-.12,0-.58-.15-1.15-.8-2.08-2.26-4.67-8.89-6.74-15.6-1.92-6.16-3.52-12.47-4.33-15.92a19.2,19.2,0,0,0,2.22-1.12,4.67,4.67,0,0,0,2.09-2.76,10.38,10.38,0,0,0,.32-2c.85,1.06,1.71,2.16,2.57,3.3Zm6.17-9.48a4.19,4.19,0,1,1-4.18,4.19,4.19,4.19,0,0,1,4.18-4.19Zm-.36-1.09c.23-.23.48-.44.7-.68V213l-.34,0-.36,0Zm6.6-40.74v18.34a23.91,23.91,0,0,0-3.73-8V168.41a34.7,34.7,0,0,1,3.73,3.83Zm-3.58-6.54,3.58-5.57V169a38.11,38.11,0,0,0-3.58-3.29Zm3.58,54.41V222h0v16c-1.2-2-2.47-4-3.78-6h0v-9.12a5.29,5.29,0,0,0,0-9.32v-3.87a22.86,22.86,0,0,0,3.73-7.78v12.52h0v1.94a5.09,5.09,0,0,0,0,3.71Zm-5.9,3.42v5.35c-1.06-1.55-2.14-3.07-3.22-4.54v-1.65a5.25,5.25,0,0,0,2.88.86l.34,0Zm11.09,44.16a10.71,10.71,0,0,0,4-10.4v-.05a36.34,36.34,0,0,0-2.06-5.82V223.07a5.31,5.31,0,0,0,3.08-4.52v49.14Zm5,5v26.09c-.74-3.77-1.37-7.53-1.86-10.31a70.72,70.72,0,0,0-2.39-9.79,25.48,25.48,0,0,0-2.08-4.79,12,12,0,0,0-.81-1.2ZM904,171.48V160.06l8.05,12.26v15.07A45.12,45.12,0,0,0,904,171.48Zm8.05,31.72V218a5.3,5.3,0,0,0-3.08-4.52v-28.5a55.49,55.49,0,0,1,3.08,18.26Zm-5.25-23.36V213h0a5.31,5.31,0,0,0-2.78.8V175.1a40.76,40.76,0,0,1,2.8,4.74ZM904,156.1v-7.52l8.05,12.25v7.53L904,156.1Zm0-11.48V131.53h0v-.35a3.89,3.89,0,0,1,3.94-3.83,4,4,0,0,1,4.1,3.83h0v25.7L904,144.62ZM908,125.16a6.18,6.18,0,0,0-5.11,2.72,6.59,6.59,0,0,0-5.33-2.72,7,7,0,0,0-4.46,1.64l10-15.26,9,13.69v1.43a6.44,6.44,0,0,0-4.11-1.5Zm-1.16,88.91a4.19,4.19,0,1,1-4.19,4.18,4.18,4.18,0,0,1,4.19-4.18Zm0,9.48v23.29c-.85-1.65-1.79-3.38-2.8-5.15V222.76a5.27,5.27,0,0,0,2.78.79Zm-11.12,44.9-7.63,4.61,0,0a3.78,3.78,0,0,1-.63-.33l7.78-5-1.17-1.83-8.06,5.2a3.26,3.26,0,0,1-.23-1.09l8-4.79-1.12-1.87-6,3.6a5.4,5.4,0,0,1,1.85-2c.59-.35.66-.35,6.79-4.28l.22.05a13.63,13.63,0,0,1,3.56,1.54,6.31,6.31,0,0,1,2.16,4.71,4.84,4.84,0,0,1-.2,1.43l-4.83,2.95a21.22,21.22,0,0,0-2.36,1.22,11,11,0,0,1-1.84.61l4.81-2.91-1.13-1.86Zm-18.82,2-.64-.07a5.33,5.33,0,0,1-5-6.18,5.71,5.71,0,0,1,5.79-5,8,8,0,0,1,1.25.11l.67.12.4-.56a4.78,4.78,0,0,1,4.1-2.22,7.76,7.76,0,0,1,3.43.9,5.05,5.05,0,0,1,2.62,4.24l-.77.49v-.12a4.52,4.52,0,0,0-1.86-3.61,4.57,4.57,0,0,0-2.88-1,5.08,5.08,0,0,0-4.67,3.11,4.25,4.25,0,0,0-2.24-.61,5,5,0,0,0-4.9,4.1,5.49,5.49,0,0,0-.06.8,4.46,4.46,0,0,0,1.41,3.36,4.73,4.73,0,0,0,3.2,1.2,5.26,5.26,0,0,0,1-.08,5.09,5.09,0,0,0,5,4.81,4.41,4.41,0,0,0,1.81-.39,4.49,4.49,0,0,0,.53-.29,6.39,6.39,0,0,0,.87.78A6.44,6.44,0,0,1,884,275a8.61,8.61,0,0,1-1.54.15c-2.5,0-4.17-1.2-5.37-4.07l-.23-.61Zm.05,4.42c-.32-.18-.64-.37-1-.58-1-.62-2-1.3-3.06-1.93l2.25,0,.18,0a9,9,0,0,0,1.6,2.44Zm-28.31-60.79a4.19,4.19,0,1,1-4.19,4.19,4.2,4.2,0,0,1,4.19-4.19Zm-.17-1.1V180.49a40.37,40.37,0,0,1,3-5.23v38.53a5.2,5.2,0,0,0-2.86-.85Zm3,9.73v21.63c-.58,1.06-1.14,2.1-1.67,3.09s-.93,1.81-1.36,2.66V223.51h.17a5.27,5.27,0,0,0,2.86-.84Zm-4.29,36.25,0-.1,0-.09c.1-1.24,1.9-5.42,4.51-10.33,2.27-4.3,5.15-9.32,8.13-14.06l2.51,7.4,5-1.75-.23-1a1.42,1.42,0,0,1-.07-.43,1.18,1.18,0,0,1,1.22-1.18c.45,0,.79.16,1.06.88l.34,1h0c-1.28,3.61-3.32,8.63-4.36,11.42a4.27,4.27,0,0,0-1-.12c-2.05.06-3.83,1.24-5.42,3a70.89,70.89,0,0,1,2.44-11.14l-2-.78h0c-1.37,3.64-3.46,14.94-3.47,21a10.26,10.26,0,0,0,.38,3.22,4.18,4.18,0,0,0,3.83,3.11h0c1.68,0,3.48-.87,5.71-2.64a11.23,11.23,0,0,1-6.74,5.4A3.57,3.57,0,0,1,858,272c-2.06,0-4.93-1.57-7.16-3.92s-3.82-5.34-3.8-7.7a4.64,4.64,0,0,1,.21-1.42Zm16.74-29.71a1.23,1.23,0,0,1,1.26-1.14c.46,0,.77.14,1,.89a1.84,1.84,0,0,1,.06.43,1.22,1.22,0,0,1-1.23,1.18c-.44,0-.76-.14-1-.9h0a1.55,1.55,0,0,1-.07-.45Zm1,3.53h.07a3.39,3.39,0,0,0,3.41-3.35h0l1-.37,2.57,7.24-.57.19-.55.18a3.22,3.22,0,0,0-2.65-1.4,3.38,3.38,0,0,0-3.39,3.32l-1.16.41-2.45-7.23,1.13-.4a3.15,3.15,0,0,0,2.56,1.41Zm13.08-10.91h.23l.8,0h0a6.74,6.74,0,0,0,5.74-3.6,21.27,21.27,0,0,1-.37,3.43v.07a2.42,2.42,0,0,1-1.16,1.52c-.65.41-1.62.8-2.79,1.37l-.77.38.19.84c.21.93.52,2.19.89,3.66a4.16,4.16,0,0,1-2.67,1h-.09a4.7,4.7,0,0,1-3.26-.85c.44-1.45.79-2.72,1-3.61l.26-.95-.91-.35a7.25,7.25,0,0,1-4.31-4.09c-.06-.45-.19-1.11-.33-1.79a12.47,12.47,0,0,1,0-1.47,8.35,8.35,0,0,0,7.56,4.46ZM875.33,213h5.13a2.62,2.62,0,0,1-5.13,0Zm8.36,34.7c-.89-4.07-2-9.59-2.9-15.58a4.3,4.3,0,0,0,.6-.32c.88,3.4,2,7.54,3.31,11.59A50.22,50.22,0,0,1,886.39,255a11.16,11.16,0,0,0-1.17-.31l.11,0s-.7-2.69-1.64-7ZM880.92,245a12.49,12.49,0,0,0-.93-1.45,3.17,3.17,0,0,0-2.34-1.53,1.73,1.73,0,0,0-.5.07l-.39.11c.27-2,.82-6.28.93-9.56h.46l.53,0c.7,4.56,1.5,8.82,2.24,12.39Zm-7.42-11.25c.22-.66.43-1.32.64-2a5.36,5.36,0,0,0,1.38.58c0,1.75-.25,3.9-.46,5.81l-1.56-4.43Zm.9,9.13-.91.27-.07,0-1.56-4.58.31-.1.62-.21,1.61,4.59Zm-.91-16.55c-.3,1.09-.71,2.49-1.18,4l-1-2.79h0l-1.62-4.54a9.75,9.75,0,0,0,3.82,3.31Zm-1.93,18.15a15.8,15.8,0,0,0-1.66,2.59,10.16,10.16,0,0,1-1.88,2.8c.81-2.11,1.91-4.87,2.86-7.41l.68,2Zm-7.43,8.31a48.85,48.85,0,0,0-3.54,4.23c-.89,1.17-1.74,2.35-2.45,3.37.05-.77.13-1.6.22-2.47,1.87-3,4.15-5,5.77-5.13Zm5,10.67.14-.14h0c0,.17-.07.34-.09.52a8.11,8.11,0,0,0-.08,1.09,7.37,7.37,0,0,0,2.12,5.18l-4.38,0h-.19c-.26,0-.52,0-.77,0a12.58,12.58,0,0,0,3.24-6.63Zm.93-3.4c-.68.47-1.31.92-1.8,1.29-.25.19-.45.35-.63.51s-.21.17-.34.37c-3.5,3.43-6,4.65-7.1,4.6-.85,0-1.3-.41-1.84-1.7a4,4,0,0,1-.18-1c.86-1.12,2.37-3.42,4.2-5.83,2-2.75,4.58-5.54,6-6.09,1.83-.83,2.66-2.63,3.49-4.12s1.65-2.75,2.3-2.88l3.55-1a3.31,3.31,0,0,1,.65.74l-2.37,1,.86,2,2.62-1.13c.13.28.26.56.37.86h0l-2.59,1.06.82,2,2.51-1c.08.3.17.59.24.89l-2.41.9.76,2,2-.75c0,.14,0,.27,0,.39a2.24,2.24,0,0,1-.11.86s0,0,0,0c-1.18.4-5.09,2.3-7.41,3.52h0c-.81.52-2.29,1.49-3.61,2.41Zm18.53-6.32c.32.71.64,1.39,1,2a16.46,16.46,0,0,0,2.19,3.35,6.74,6.74,0,0,0,.83.78l-1,.6a7,7,0,0,0-3-4.54c0-.22,0-.48,0-.82s0-.85,0-1.39Zm-2.42,10.39a7.29,7.29,0,0,0-.85,1L883.6,265l-.78,1.75,1.25.69a7.42,7.42,0,0,0-.45,2.43,5.89,5.89,0,0,0,.29,1.84l-.26.15a2.5,2.5,0,0,1-.94.19,2.78,2.78,0,0,1-2-.87,2.71,2.71,0,0,1-.84-1.84,1.72,1.72,0,0,1,.47-1.21l-1.5-1.56a3.42,3.42,0,0,1-2.1.76,2.29,2.29,0,0,1-2.44-2.39,2.77,2.77,0,0,1,0-.49,2.83,2.83,0,0,1,2.75-2.24,2.31,2.31,0,0,1,2.17,1.53l2-.76a2.57,2.57,0,0,1-.1-.7,2.39,2.39,0,0,1,.85-1.79,3,3,0,0,1,2-.77,2.29,2.29,0,0,1,1.52.54,2.32,2.32,0,0,1,1,1.91,4.61,4.61,0,0,1-.57,2l.07,0Zm-29-50.65a5.28,5.28,0,0,0-1.56,8.24l0,.07,1.57,4.64h0v8.13c-1.21,1.95-2.38,3.92-3.5,5.87V221.55h0v-1.67a5.58,5.58,0,0,0,.27-1.64,5.33,5.33,0,0,0-.27-1.61v-1.89h0V201.29a23,23,0,0,0,3.5,7.87v4.35Zm-3.5-44.41v-9l3.69,5.62a34.93,34.93,0,0,0-3.69,3.42Zm3.5-.4v14.42a23.89,23.89,0,0,0-3.5,8v-18.8a35.75,35.75,0,0,1,3.5-3.66Zm-4.5-40.82a6.18,6.18,0,0,0-5.11-2.72,6.52,6.52,0,0,0-4.12,1.5v-1.2l9.14-13.92,10,15.18v.15a7,7,0,0,0-4.56-1.71,6.58,6.58,0,0,0-5.32,2.72Zm-9.22,3.29a4.05,4.05,0,0,1,4.11-3.83,3.88,3.88,0,0,1,3.93,3.83h0c0,.12,0,.24,0,.36v13.09l-8,12.26V131.17Zm8,17.41v7.52l-8,12.26v-7.52l8-12.26Zm0,11.48V171.6a45.46,45.46,0,0,0-8,16v-15.3l8-12.27Zm-8,43.52a55.16,55.16,0,0,1,2.81-17.78v27.69a5.31,5.31,0,0,0-2.85,3.74V203.58ZM846.29,223v31.75a17.4,17.4,0,0,0-1.2,3.65,7,7,0,0,0-.27,2,12.83,12.83,0,0,0,2.83,7.34h-4.21V219.24a5.27,5.27,0,0,0,2.85,3.73Zm6.87,49.7a12.09,12.09,0,0,0,3,1.23l-.41.32c-2,1.76-4.32,4.34-6,9.84-1.11,3.65-3.21,11.63-6.35,18.46V272.67Zm-12.35,59.7a8.24,8.24,0,0,1,.91-1.59,1,1,0,0,1,.89-.41,2.22,2.22,0,0,1,1.47.36,9.43,9.43,0,0,1,2.19,2.35,10.17,10.17,0,0,0,2.36,2.25h-10a8.35,8.35,0,0,0,2.18-3Zm71.27-211.1L904,109v-3.69h2v-2.18h-2v-2h-2.17v2h-2v2.18h2v4.13L893,123V97.56h19.1v23.71Zm-17.77,7.33a4.83,4.83,0,0,1,3.22-1.26,4.26,4.26,0,0,1,4.33,4.19v13.09L893,158.09V131.32a4,4,0,0,1,1.33-2.72Zm7.55,20v7.54l-5.32,8.3a33.61,33.61,0,0,0-3.56-2.18V162l8.88-13.47Zm-5.9,18.1V180a24.92,24.92,0,0,0-3.72-3.23V164.28a31.29,31.29,0,0,1,3.72,2.39Zm-33.11,10.48a24.84,24.84,0,0,0-3.51,3.2V166.9a33.45,33.45,0,0,1,3.51-2.34v12.59Zm-3.75-12.77-5.43-8.28v-7.53l9,13.63a33.1,33.1,0,0,0-3.55,2.18Zm-5.43-19.76V131.53a4.26,4.26,0,0,1,4.32-4.19,4.9,4.9,0,0,1,3.25,1.26,4.07,4.07,0,0,1,1.31,2.46v27.06l-8.89-13.5Zm0-35.38v-3.92h2v-2.18h-2v-2h-2.18v2h-2v2.18h2v3.92l-8,12.25V97.56h19.11v25.2l-8.88-13.52Zm-5.79-25.62h-4.44v-20h0v0h0L842,61.25V53.36h2V51.19h-2v-2h-2.17v2h-2v2.17h2v8l-1.39,2.31h0V84.31l-12.74,19.26V51.44a154.85,154.85,0,0,1,22.15-6v38.2Zm-9.41,4.64v41.49l-5.3-8v-6.34h2v-2.18h-2v-2H831v2h-1.94v2.18H831v6.35l-5.27,8V107.51l12.74-19.25ZM832.09,124l6.38,9.71v5.35a5.11,5.11,0,0,0-2.73-.82,4.81,4.81,0,0,1-7.33,0,5,5,0,0,0-2.68.79v-5.34l6.36-9.7Zm-3.68,16.42a2.56,2.56,0,0,1,2.59,2.46v42.53l-5.27,8V142.89a2.69,2.69,0,0,1,2.68-2.46Zm3.68,47.29,6.38,9.7V216a4.89,4.89,0,0,0-2.56-.75A5.11,5.11,0,0,0,832.1,217a4.86,4.86,0,0,0-6.37-1V197.41l6.36-9.69Zm-3.75,29.67a2.66,2.66,0,0,1,2.66,2.46v47.84h-5.27V219.81a2.61,2.61,0,0,1,2.61-2.42ZM831,272.67v48.07c-.06.07-.12.11-.18.17v-5l-5.09-9.05V272.67Zm-3.5,44.07v19.49l-2.6,2.27V312.12l2.6,4.62ZM928,336.23V316.74l2.59-4.62v26.37L928,336.23Zm1.76-232.88L917.06,84.08V63.64h0l-1.37-2.35V53.36h1.95V51.19h-1.95v-2h-2.18v2h-2v2.17h2v7.93l-1.41,2.34h0v20h-4.42V45.39a156,156,0,0,1,22.14,6v52ZM912.08,85.8v9.59H893V85.8ZM893,83.62V68h0a2.33,2.33,0,0,1,2-2.46,1.89,1.89,0,0,1,1.37.68,2.6,2.6,0,0,1,.68,1.77V83.62Zm6.24,0V68h0a2.46,2.46,0,0,1,2.46-2.45,2.73,2.73,0,0,1,1.86.75,2.41,2.41,0,0,1,.79,1.74h0V83.62Zm5.12-23.52v4.11a5,5,0,0,0-2.66-.81A4.64,4.64,0,0,0,898.17,65,4.09,4.09,0,0,0,895,63.4a4,4,0,0,0-2.6,1V59.31l5.73-8.73,6.21,9.52ZM892.42,38.85a2.32,2.32,0,1,1,4.63.16v9.26l-4.65,7.07V39h0c0-.06,0-.11,0-.16ZM885.6,5.24c3.84.16,7.66.41,11.45.78V26.83l-5.7-14.62L885.6,27V5.24Zm0,29.13h0c0-.1,0-.2,0-.3V33l5.75-14.79,5.7,14.62v2.25a4.33,4.33,0,0,0-2.32-.69,4.36,4.36,0,0,1-6.8,0,4.39,4.39,0,0,0-2.33.69v-.7Zm0,4.64h0a2.32,2.32,0,1,1,4.64-.16c0,.06,0,.1,0,.16V55.34l-4.63-7.07V39Zm4.63,20.3V64.5a4.27,4.27,0,0,0-2.74-1.1,3.87,3.87,0,0,0-3,1.55,4.25,4.25,0,0,0-5.54-.9v-5l5.58-8.5,5.73,8.73Zm-11.31-4.2V34.37a2.25,2.25,0,1,1,4.49-.15V48.27l-4.49,6.84ZM872.11,5.16c1.9,0,3.81-.09,5.73-.09s3.72,0,5.57.09V20.63L877.73,6l-5.62,14.41V5.16Zm0,21.28L877.73,12l5.68,14.6v3.76a4.3,4.3,0,0,0-2.23-.64,4.36,4.36,0,0,0-3.35,1.61,4.36,4.36,0,0,0-5.72-.93v-4Zm0,7.69a2.32,2.32,0,1,1,4.64.24h0v21l-4.64-7.07V34.13Zm4.64,25.18v4.78a4.36,4.36,0,0,0-2.32-.69A4.44,4.44,0,0,0,871,65a4.14,4.14,0,0,0-3.15-1.6,3.91,3.91,0,0,0-2.6,1V59.31L871,50.58l5.73,8.73Zm-11.46-4V39a2.37,2.37,0,0,1,2.32-2.4A2.4,2.4,0,0,1,869.94,39v9.27l-4.65,7.07ZM858.48,6q5.68-.57,11.46-.79V26.77l-5.69-14.61L858.48,27V6Zm0,26.93,5.77-14.82,5.69,14.62v1.39c0,.07,0,.14,0,.21h0v.7a4.33,4.33,0,0,0-2.33-.69,4.39,4.39,0,0,1-6.81,0,4.3,4.3,0,0,0-2.32.69V33Zm0,6a2.32,2.32,0,1,1,4.63,0v0h0V55.34l-4.63-7.07V39Zm4.63,20.3v5.2a4.2,4.2,0,0,0-2.73-1.11A3.89,3.89,0,0,0,857.32,65a4.61,4.61,0,0,0-3.46-1.59,4.91,4.91,0,0,0-2.65.8V60.1l6.19-9.52,5.71,8.73Zm-11.9-3.2V44.8c1.69-.3,3.39-.57,5.09-.8v4.27l-5.09,7.84ZM749.7,236.16h-5.38a5.29,5.29,0,0,0-.06-9.5h5.44v9.5Zm-10.05-9.5a5.29,5.29,0,0,0,0,9.5h-4.94v-9.5Zm-5-3.33V213.2h0a2.41,2.41,0,0,1,.93-1.83,3.61,3.61,0,0,1,2.33-.84,2.88,2.88,0,0,1,3,2.67v10.13Zm3.11,8.09a4.19,4.19,0,1,1,4.19,4.19,4.2,4.2,0,0,1-4.19-4.19Zm11.93-8.09h-6.53V213.2a2.94,2.94,0,0,1,3.14-2.67,3.89,3.89,0,0,1,2.41.84,2.41,2.41,0,0,1,1,1.83h0v10.13Zm0-13.94a6.08,6.08,0,0,0-3.39-1,5.5,5.5,0,0,0-4.22,1.91,5.38,5.38,0,0,0-4.14-1.91,5.89,5.89,0,0,0-3.29,1v-5.28l7.42-11.37,7.56,11.57.06,0v5.15Zm0-9-6.53-10v-4.17h2v-2.17h-2v-2H741v2h-2v2.17h2v4.17l-6.33,9.7V184.59l15-21.51V200.4Zm0-41.12-15,21.52V154.9h0L733,152.22l-1.68,2.68h0v84.58H749.7v48.87a156.33,156.33,0,0,1,0-179v50Zm0-61.18h0v0h0v7.42a158.5,158.5,0,0,0,0,186.52V344c-3-2.67-6-5.42-8.82-8.27A193.69,193.69,0,0,1,856.3,6.27V41.8c-1.7.23-3.4.5-5.09.79v-26h0v0h0l-1.66-2.1-1.64,2.1h0v0h0V43.19a158,158,0,0,0-22.15,5.93V43.37h0l-2.41-4.14-2.49,4.14h0V51q-7.35,2.85-14.33,6.37V51.51l-3.32,5.4v2.16a159,159,0,0,0-30.55,21.32V74.6l-3.32,5.15v3.69a158.28,158.28,0,0,0-14.55,15.64v-1h0l-2.44-4.16-2.5,4.16Zm50,250v-2.22h2.17v-2.17h2.22v2.17h2.16v2.22H804.1v2.16h-2.22v-2.16Zm-45-6.14v-3.33H816.8l3.72,3.33Zm34.51,6.14v-2.22h2.17v-2.17h2.22v2.17h2.16v2.22h-2.16v2.16h-2.22v-2.16Zm-10.52,0v-2.22h2.17v-2.17h2.21v2.17h2.17v2.22h-2.17v2.16h-2.21v-2.16Zm-10.52,0v-2.22h2.17v-2.17h2.22v2.17h2.16v2.22h-2.16v2.16h-2.22v-2.16Zm9.5-234.75,4,6.1v21.62h-2.91v-18l1-1.63-2.1-3.37-2.11,3.37,1,1.62v18h-4V121l5.1-7.62Zm-5.1,3.71V83.32c1.33-1.21,2.66-2.4,4-3.56v31.31l-4,6Zm30.55,3.86v20.15h-4v-18l1-1.62L798,118.12l-2.11,3.37,1,1.62v18H794V119.46l4-6.1,5.1,7.57Zm-4-9.86V63.8c1.33-.78,2.67-1.53,4-2.27V117l-4-6Zm-3.87,95.43v4.22a43.91,43.91,0,0,0-5.72-.58V210l6.81-10.37L803.1,210v3a33.06,33.06,0,0,0-5.72-1.86V206.5Zm-5.72-.45V176.94a3.29,3.29,0,0,1,2.57-1.15,3,3,0,0,1,3.15,2.66v18.89l-5.72,8.71Zm7.89-8.71V178.45h0a2.69,2.69,0,0,1,2.73-2.66,3.13,3.13,0,0,1,2.08.81,2.51,2.51,0,0,1,.88,1.85h0v27.6l-5.72-8.71Zm2.74-23.73a5,5,0,0,0-3.87,1.87,5.57,5.57,0,0,0-4.19-1.87,5.7,5.7,0,0,0-2.57.62v-1.3l6.59-18.22,7,19.42v.43a5.38,5.38,0,0,0-3-.95Zm-4-25.3-6.59,18.22V143.25H803.1v24.48l-7-19.42Zm.82-58.79-4-6.09-4,6.08V70.26c2.6-1.8,5.27-3.52,8-5.17V89.52Zm-4-2.12,4,6.08v17.59L794,115.5V100.3h2V98.13h-2v-4.2h-2.17v4.2h-1.94v2.17h1.94v15.19l-2.9-4.42V93.48l4-6.08Zm-1.08,32.06v21.62h-2.91v-18l1-1.63-2.11-3.37-2.11,3.37,1,1.62v18h-2.91V119.46l4-6.08,4,6.08Zm-5.08-29.94-4-6.09-4,6.09V77.94q3.9-3.19,8-6.14V89.52Zm-4-2.12,4,6.08v17.59l-2.91,4.43V100.3h2.11V98.13h-2.11v-4.2h-2.17v4.2h-1.81v2.17h1.81v15.2l-2.91-4.43V93.48l4-6.08Zm3.42,55.85v23.94l-6.8-18.78-6.82,18.87v-24Zm-6.8,11.56,6.8,18.78v.64a5.87,5.87,0,0,0-2.57-.62,5.56,5.56,0,0,0-4.22,1.9,5.26,5.26,0,0,0-4-1.9,5.08,5.08,0,0,0-2.82.87v-.81l6.82-18.86Zm6.8,22.13v29.11l-5.72-8.71V178.45a3,3,0,0,1,3.15-2.66,3.29,3.29,0,0,1,2.57,1.15Zm-10.8-1.15a2.9,2.9,0,0,1,2.91,2.66v18.89l-5.73,8.72V178.2a2.82,2.82,0,0,1,2.82-2.41Zm4,23.85L786.17,210v.13a42.32,42.32,0,0,0-5.72.56v-4.26h-2.17v4.69a33.46,33.46,0,0,0-5.73,1.85v-3l6.81-10.38Zm8.39,12.64c15.15,0,23.23,6.94,27.77,14.15a37.25,37.25,0,0,1,4.51,11,7.07,7.07,0,0,0-3.28-.95h-.28a7.12,7.12,0,0,0-4.37,1.71,31.21,31.21,0,0,0-7.27-15c-4.26-4.92-9.87-8.52-15.74-8.95-.23,0-.46,0-.69,0h-.57a13.36,13.36,0,0,0-2.52.22c-5.43.87-10.59,4.26-14.59,8.76A30.92,30.92,0,0,0,763.25,238a7,7,0,0,0-4.59-1.59h0a7.07,7.07,0,0,0-3.1.67,37.13,37.13,0,0,1,4.5-10.66c4.56-7.22,12.66-14.14,27.73-14.16Zm30.1,46.18V238.81a4.66,4.66,0,0,1,1.7.88,3.22,3.22,0,0,1,1.2,2.12v65l-2.88,5.21V275.55a2,2,0,0,0,0-.24V258.46ZM812.14,214v4.93a30.46,30.46,0,0,0-5.43-4l6.52-10.07,7.52,11.46v16.05a38.4,38.4,0,0,0-3.39-7,31.85,31.85,0,0,0-3.05-4.14V214Zm2.17-11.51v-24a3,3,0,0,1,3.15-2.66,3.73,3.73,0,0,1,2.37.84,2.42,2.42,0,0,1,.92,1.82v33.8l-6.44-9.81Zm6.42-27.84a5.86,5.86,0,0,0-3.27-1,5.52,5.52,0,0,0-4.21,1.9,5.15,5.15,0,0,0-4-1.9,5.23,5.23,0,0,0-2.72.79l7.06-19.51,7.11,19.71Zm-6.14-23.39V55.85c2-.9,4.09-1.74,6.16-2.55v115l-6.16-17Zm-2.17.6-6,16.58V59.77c2-1,4-2,6-2.94v95Zm-3.14,24a2.82,2.82,0,0,1,2.86,2.66v24l-5.72,8.83V178.39a2.87,2.87,0,0,1,2.86-2.6ZM795,327c0,.73,0,1.38,0,1.86a4.77,4.77,0,0,1,0,.54.64.64,0,0,1,0,.07c-.06.11-.16.25-.27.43v-11c.13-1.89.24-4.16.32-6.36l.31.33h0l.32.41a1.82,1.82,0,0,1,.43,1.14c.08.86-1.08,2.72-1.09,6.39,0,1.76.08,4.27.08,6.22Zm-7.57-.75-1-.26-.7-.21-.47-5.74,6.93,1.17c0,.33-.08.61-.12.83s0,.25-.07.37l-5.05-.88.44,4.72ZM779.56,324a69.05,69.05,0,0,1-7.34-2.47,6.78,6.78,0,0,0-2.46-.72,7,7,0,0,1-.22-.91c3.59.87,11.44,2.82,13.89,3.43l.14,1.79c-.87-.24-2.35-.64-4-1.12Zm1.1,2.58v8.79h-3.74v-9.88l3.74,1.09Zm-5.91-1.79v10.58H771v-12l.31.13c.91.4,2.12.84,3.43,1.28Zm-7.64-11.33a8.19,8.19,0,0,0-2-.54v-70.8a3,3,0,0,1,1.31-2.37,5.65,5.65,0,0,1,2.43-1v75.4c-.38-.16-.9-.37-1.73-.68Zm1.73,13.29v4.53l-.54-2c.1-.45.31-1.44.54-2.5Zm-2.71,2.8,1.19,4.5a7.48,7.48,0,0,1-3.09-1.92,5.5,5.5,0,0,1-1.39-4,1.48,1.48,0,0,1,0-.21,28,28,0,0,1,.73-4.72c.35-1.58.69-2.83.69-2.83a1,1,0,0,0,0-.65s-.17-.48-.34-1.15a9.49,9.49,0,0,1-.34-2.14,1.31,1.31,0,0,1,.09-.62c.46-.68.48-.68,1-.73h0a5.34,5.34,0,0,1,1.7.43c.53.19.92.35,1.24.48a7.35,7.35,0,0,0-.38,2.41,11.44,11.44,0,0,0,.62,3.5,3.37,3.37,0,0,0-.28.73c-.3,1.14-1.42,6.43-1.42,6.44a1.05,1.05,0,0,0,0,.5Zm-4-9.45a42,42,0,0,0-1.4,7.75,2.17,2.17,0,0,0,0,.26,7.57,7.57,0,0,0,2,5.55,10.47,10.47,0,0,0,2.23,1.71h-4.87V238.79a3.39,3.39,0,0,1,2.87,3.29v71.27a3.61,3.61,0,0,0-1.13,1.28,3.28,3.28,0,0,0-.41,1.74,14.1,14.1,0,0,0,.7,3.69Zm3.45-82.38a29.32,29.32,0,0,1,6.81-13.05,28.24,28.24,0,0,1,5.7-5,16.75,16.75,0,0,0-1.72,4.09c-1.25,4.27-1.5,9.36-1.56,14.23a8.07,8.07,0,0,0-4.81-1.56h-.05a8.19,8.19,0,0,0-4.37,1.25Zm48.89,22.95-2,1.54-2-1.54Zm-2-2.17V242.08a3.15,3.15,0,0,1,1.25-2.39,4.82,4.82,0,0,1,2-1v19.73Zm-.88,4.41-3.41,2.63-3.34-2.58,2.89-2.29h1l2.9,2.24Zm-5,41.25V287.33c.71-.08,1.43-.18,2.06-.29a6.7,6.7,0,0,0,1.68-.46V331c-1.25-.24-2.51-.51-3.56-.8l-.18-.06v-12.5c1.1-3.32,2-6.35,2-7.93a8.32,8.32,0,0,0-2-5.58Zm2.79-19.49-.06,0a19.89,19.89,0,0,1-3.5.57c-.7.08-1.35.14-1.83.18l-1.21-3.13a2,2,0,0,1,1.08-1.36,21.82,21.82,0,0,1,4.47-1.84,1.74,1.74,0,0,1,.52-.07,1.24,1.24,0,0,1,.72.19l0,0-.22.13c-.74.37-1.45.62-2.07.87a3.92,3.92,0,0,0-.89.45,1.53,1.53,0,0,0-.72,1.27,1.64,1.64,0,0,0,0,.37,1.38,1.38,0,0,0,.67.86,1.62,1.62,0,0,0,.81.19,9.23,9.23,0,0,0,3.1-1,19.88,19.88,0,0,1,4.36-1.61c.08.06,0,.05.06.11a1.3,1.3,0,0,1-.44.76,20.54,20.54,0,0,1-2.54,1.66c-1.13.66-2.19,1.23-2.4,1.35Zm-12.13,36.15A15.28,15.28,0,0,1,798,316l2,.47L797.6,329h-.43c0-.56.05-1.24.05-2,0-2-.08-4.52-.08-6.22ZM779.66,266c.19-.11.5-.26.88-.43s.74-.31,1.12-.44a12.19,12.19,0,0,0,.71,1.37,6.07,6.07,0,0,0,3.64,3,11.34,11.34,0,0,0,2.22.21,16.68,16.68,0,0,0,3.31-.35c.32.37.8.93,1.36,1.65,1.46,1.74,1.77,5.49,1.77,6.88l-3.93,1.66-.15-.14c-1.55-1.55-3.29-3.78-7-8.34l-1.68,1.37,3,3.74-6.66,4.92c-.3-.76-.53-1.32-.63-1.53a19,19,0,0,1-.79-2.52,19.29,19.29,0,0,1-.63-4.37,5,5,0,0,1,.52-2.5c1.43-2.24,2.54-3.72,2.91-4.2Zm-2.74,0v-4.53a4.28,4.28,0,0,0,.78.53,6.91,6.91,0,0,0,3.31.8h.23V263a17,17,0,0,0-2.82,1.21,1.16,1.16,0,0,0-.34.28s-.45.59-1.16,1.58Zm10-1.2a12.83,12.83,0,0,0,2.95.28c.47,0,.91,0,1.29,0l-.25,2.18-.3.06a14.47,14.47,0,0,1-2.4.22,8.41,8.41,0,0,1-1.76-.17,4,4,0,0,1-2.24-2,11.79,11.79,0,0,1-.67-1.32c-.07-.17-.13-.3-.16-.4v-.15a14.68,14.68,0,0,0,3.54,1.35Zm-2-3a5.35,5.35,0,0,0,1.42-1.15c.16.42.32.86.47,1.29.1.23.18.44.25.65a12.72,12.72,0,0,1-2.14-.79Zm19.4-3.34h-3.74V242.08h0a3.07,3.07,0,0,1,1.31-2.37,5.65,5.65,0,0,1,2.43-1v19.76Zm1.57,2.17-2,1.59-2.07-1.59Zm-2.91,2.3-2.4,1.89v-3.74l2.4,1.85Zm.9.7,3.34,2.56-3.48,2.69-3.16-2.44v-.21l3.3-2.6Zm-1,5.93-2.27,1.75v-3.49l2.27,1.74Zm.91.7,3.4,2.63-3.63,2.79-2.95-2.27v-.7l3.18-2.45Zm-1.85,9.34a5.41,5.41,0,0,1-.52-.87l2.15-1.66,1.21.93a16.91,16.91,0,0,0-2.13,1.06,4.13,4.13,0,0,0-.71.54Zm2.41,8v14l-3.74-4.24v-8.27l3.74-1.51Zm-1.69-11.28-1.68,1.3a7.67,7.67,0,0,1-.37-2.36v-.52l2,1.58Zm-1.88,6.92L793,286l.68-2,6.66-1.74.39,1Zm-3.28-21.9a2.92,2.92,0,0,1-.25-.7,5.18,5.18,0,0,1-.1-1,4.52,4.52,0,0,1,.07-.81,1.05,1.05,0,0,1,.07-.26c0-.06,0-.06,0-.07a10.09,10.09,0,0,1,.91-1.09l.22-.22v23.31l-1.06.28-.49-2.45v-.25c0-1.34-.07-5.56-2.19-8.39v-4.83h.17a4.44,4.44,0,0,0,1.45-.18,2,2,0,0,0,1.41-1.47,2.39,2.39,0,0,0,.08-.64,2.78,2.78,0,0,0-.31-1.21Zm-2.22,20-2.1.55-.73-.71,2.57-1.09.26,1.25Zm3.16-27.31c-.14-.28-.27-.57-.38-.83a5,5,0,0,1-.25-.61.84.84,0,0,1,0-.12,8.54,8.54,0,0,0,.34-1.69,2.47,2.47,0,0,0-.47-1.43c-.33-.46-.78-1-1.14-1.47a4.87,4.87,0,0,0,.8-2.7,3.93,3.93,0,0,0-1.59-3.35,7.68,7.68,0,0,0-1-.55v-2.6a5.65,5.65,0,0,1,2.43,1,3.05,3.05,0,0,1,1.31,2.37v12Zm-2.58-3.42c.09.14.06.11.07.17s-.17.59-.32,1.41c0,.09,0,.14,0,.19a2.07,2.07,0,0,0-1.55,2,5.84,5.84,0,0,1,2-.26c.24.53.51,1.09.71,1.54,0,0,0,.08,0,.11s-.14.15-.22.23l-.13.15-1.73.84a2.62,2.62,0,0,1,.31,1.16c0,.61-.23,1.29-1.42,2.22l1.32,1.73c.13-.09.24-.19.36-.29a5.46,5.46,0,0,0,.22.5,1.12,1.12,0,0,1,.11.3.09.09,0,0,1,0,0,2.81,2.81,0,0,1-.76.07H794c-.38,0-.81,0-3.22.2h-.66l-.08-.05a6.78,6.78,0,0,1-.7-.57s0,0,0,0a22.82,22.82,0,0,1-.89-2.29,12.21,12.21,0,0,0,2.73-1.94c2.64-2.47,3.24-6.54,3.79-8.6.31.39.65.83.89,1.18Zm-14.91,37.18a33.21,33.21,0,0,0,4.83,3.29l0,0h-3.67l-.05-.17s-.52-1.39-1.21-3.21l.06.06Zm-1.64-4.75,7.05-5.2.95,1.13-6.1,6-1.9-1.93Zm5.33,4.76c-.8-.52-1.49-1-1.88-1.31l6-5.9.33.33.61.62-5.07,6.26Zm6.63-4.73c.14.13.25.24.36.33l-2.43,7.18c-.64-.38-1.45-.85-2.29-1.36l-.42-.25,4.78-5.9Zm-14.31.51c.34.87.71,1.83,1.07,2.77.92,2.4,1.8,4.72,2,5.24a9.92,9.92,0,0,1,.07,1.09,3.42,3.42,0,0,1-.24,1.45c-1.35,2.47-2.18,6-2.18,10.52a4.53,4.53,0,0,0,1.13,3.39,2.81,2.81,0,0,0,1.2.69c.06.34.14.82.25,1.5a42.84,42.84,0,0,0,1.82,5.8,12.56,12.56,0,0,0-3.52-1.07,10.86,10.86,0,0,0-1.37-.09h-.23V283.6Zm3,18.32c1.63-.32,5.4-1.07,7.72-1.67,2-.52,4.43-1.27,5.91-1.75,0,.41.1.84.14,1.27-1.51.46-4.81,1.44-6.77,1.92s-5.35,1.12-7.09,1.45c0-.43,0-.82.09-1.22Zm7.18-3.78c-1.93.51-5,1.13-6.86,1.49a15,15,0,0,1,1.47-4.44,4.63,4.63,0,0,0,.48-1.88l7.26,0,.37.21h0c.28.16.63.38,1,.64a7.52,7.52,0,0,1,2,1.85,1.82,1.82,0,0,1,.18.37c-1.43.46-4,1.27-6,1.78Zm4.37-7.65.63-1.86,9.4-3.3.36.95-10.39,4.21Zm6.29-.21.62-.25v4.67a3.69,3.69,0,0,1-.62-1.32v-3.1Zm1.51,9,4.67,5.32-1.49,1.19-4.63-5.48,1.45-1Zm1.47,7.86-1.16.91-4.13-3.81a2,2,0,0,0,.2-.36,7.71,7.71,0,0,0,.27-2.22l.13-.08,4.69,5.56Zm-2.88,2.28-1.64,1.29q-.5-.49-1.17-1.05c0-1,.06-1.95.07-2.76l2.74,2.52Zm4.18,7.56,2.18.51c-.31.94-.64,1.87-1,2.79-1.22,3.46-2.43,6.66-2.9,7.88l-.45.22,2.13-11.4Zm2.24,6.89v5.37a6.34,6.34,0,0,0-1.59-1.11c.38-1,.95-2.53,1.58-4.26Zm-6.12-10a4,4,0,0,0-.54-1.44l7.71-6.12a6.72,6.72,0,0,1,.6,1.23l-6.6,5.11,6,1.51q-.19.63-.39,1.29l-6.74-1.58Zm6-2.23,2.11-1.64a14.67,14.67,0,0,1-.42,2.07l-1.69-.43Zm7.51-32.25a.37.37,0,0,0,0-.11,2.39,2.39,0,0,0-.56-1.4l1.2-.91,2.17,1.67a10.22,10.22,0,0,0-2.82.75Zm-1.47-2.19a3.69,3.69,0,0,0-1.51-.32,3.92,3.92,0,0,0-1.11.16c-.52.15-1.1.34-1.71.56l-1.49-1.16,3.63-2.8,3.4,2.62-1.21.94ZM808,272.2l-3.4-2.63,3.47-2.67,3.41,2.62L808,272.2Zm2.18-13.74h-3.74V238.7a5.53,5.53,0,0,1,2.43,1,3,3,0,0,1,1.31,2.37v16.38Zm-4.8-22h0a8,8,0,0,0-4.82,1.56c0-4.94-.26-10.1-1.5-14.41a16.39,16.39,0,0,0-1.74-4.13,27.89,27.89,0,0,1,5.87,5.16,29.65,29.65,0,0,1,6.62,13.08,8.18,8.18,0,0,0-4.39-1.26Zm-7,1.54a8,8,0,0,0-4.79-1.54h0a8.69,8.69,0,0,0-4.74,1.26l-.06,0V216.41c4.64.36,6.82,3.22,8.21,7.78,1.15,3.91,1.38,8.91,1.42,13.78Zm-5.89.7v2.12h0a7.34,7.34,0,0,0-2,.31,8.5,8.5,0,0,0-1.52-.45,2.75,2.75,0,0,1,1-1.14,6,6,0,0,1,2.5-.84ZM790,243.24l.38.17.39-.11a5.83,5.83,0,0,1,1.76-.33,3.4,3.4,0,0,1,2,.71,1.42,1.42,0,0,1,.55,1,14.21,14.21,0,0,0-3.26-.33l-1,0,.09,2.18h.9a11,11,0,0,1,2.82.29,2.44,2.44,0,0,1-1,.8l-.26.11a5.22,5.22,0,0,0-1.45-.18c-.45,0-.84,0-1.12,0v2.18c.41,0,.78,0,1.12,0a3.17,3.17,0,0,1,.72.06c-.54,2.24-1.28,5.21-3,6.68-1.9,1.72-2.91,1.91-3.43,1.92H786l-.73-.08-.34.65a3.29,3.29,0,0,1-1.7,1.28v-.06a5.23,5.23,0,0,1,.73-2.56l-1.92-1a7.45,7.45,0,0,0-1,3.58c0,.17,0,.34,0,.51H781a5.71,5.71,0,0,1-.84-.07,6.11,6.11,0,0,1,0-.64,6.8,6.8,0,0,1,1-3.81l-1.78-1.24a8.52,8.52,0,0,0-1.41,4.59,3.37,3.37,0,0,1-.67-2.13,5,5,0,0,1,1.16-3.24l.3-.32V253c0-2.92.52-5.86,2.18-7.59a8.91,8.91,0,0,1,6.18-2.79,6.86,6.86,0,0,1,2.84.61Zm-13,5.87v-7a3.07,3.07,0,0,1,1.31-2.36,5.58,5.58,0,0,1,2.43-1v4.06a11.47,11.47,0,0,0-1.31,1.17,10.23,10.23,0,0,0-2.43,5.18Zm5.92-7.65v-2.79a6,6,0,0,1,2.49.84,2.91,2.91,0,0,1,1,1,10.32,10.32,0,0,0-3.45,1Zm3.73-3.73-.06,0a8.71,8.71,0,0,0-4.74-1.26h0a8,8,0,0,0-4.79,1.54c0-4.8.32-9.72,1.46-13.6,1.4-4.51,3.6-7.43,8.17-7.92v21.28Zm-11.82,39.84,0,.11h0v37.41a14.82,14.82,0,0,1-2.12.2,4,4,0,0,1-1.32-.19L771,315V238.7a5.56,5.56,0,0,1,2.42,1,3,3,0,0,1,1.32,2.37v27.27a7.3,7.3,0,0,0-.69,3.32,21.45,21.45,0,0,0,.69,4.9Zm-5.16,39.21,1,.37a6.15,6.15,0,0,0,2,.32c1.59,0,3-.41,4.52-.4a7.94,7.94,0,0,1,1.08.07,10.39,10.39,0,0,1,3.77,1.35,9.46,9.46,0,0,1,1.09.71l.15,1.8c-3.22-.8-10.82-2.69-13.82-3.4a4.49,4.49,0,0,1,.17-.82ZM786.13,318l-1.09-.19c-.24-.6-.66-1.67-1.1-2.87a37.29,37.29,0,0,1-1.57-5c-.1-.54-.17-.95-.22-1.27l1.74-.39,2.24,9.76ZM786,307.72l1.84-.46.55-.14,1.06,11.41-1-.17L786,307.72Zm-3.17,19.42,1,.25.58.21h0c.53.18,1.31.43,2.18.67v7.06h-3.73v-8.19Zm8.82-2.59a8.09,8.09,0,0,1-.21.8,2.15,2.15,0,0,1-1,1.21h0a1.53,1.53,0,0,1-.58.07h-.23l-.23-2.47,2.2.39Zm-2.91,4.17a9.51,9.51,0,0,0,1.17.09,3.11,3.11,0,0,0,1.86-.49,5.19,5.19,0,0,0,.71-.61v7.62h-3.74v-6.61Zm3.72-9.68-.79-.13-1.15-12.39c.75-.22,1.47-.44,2.11-.67l.35-.13c0,1.47-.09,3.73-.17,6.13s-.21,5.14-.35,7.19Zm-1.3-15c-3.84,1.26-10.09,2.55-10.45,2.62h0a.63.63,0,0,1-.44-.17,1.91,1.91,0,0,1-.42-1.15c1.55-.29,5.41-1,7.58-1.55,1.83-.44,4.64-1.27,6.32-1.77a7.37,7.37,0,0,1-.12,1,11.75,11.75,0,0,1-2.47,1Zm1.69-11.77,2.74-1.11v1.12Zm3,2.18a10.12,10.12,0,0,0,1.39,2.33c.23.3.45.57.65.81l-2,1.46a11.59,11.59,0,0,0-1-4.17,4.35,4.35,0,0,0-.32-.43Zm.63,36.64a5.15,5.15,0,0,0,.94.08h0a8.43,8.43,0,0,0,3.86-1.05,1.17,1.17,0,0,0,.41-.1l.2.09a4.3,4.3,0,0,1,1,.74,8.17,8.17,0,0,0,3.21,1.41A73.16,73.16,0,0,0,815,334s0,.06,0,.09c-.12.36-.1.34-.3.45a5,5,0,0,1-1.9.29c-.72,0-1.52-.07-2.33-.1a58.43,58.43,0,0,1-6.76-.56,3.13,3.13,0,0,0-.8-.07,70.37,70.37,0,0,0-7.18.79c-.13-.07-.32-.07-.4-.76a.81.81,0,0,1,0-.15,6.28,6.28,0,0,1,1.13-2.85Zm15.94.28v-46l.36-.22a18.89,18.89,0,0,0,2.94-1.95v48.67c-.75-.1-1.94-.27-3.3-.49Zm2.85-53.63-2-1.53,2.45-1.89v1a6.51,6.51,0,0,1-.46,2.44Zm-2.9-2.23L809,272.9l3.47-2.69,3.29,2.54v.18l-3.36,2.59Zm1-6,2.38-1.83v3.66l-2.38-1.83Zm-.91-.7-3.4-2.63,3.41-2.63,3.28,2.53v.2l-3.29,2.53Zm.92-5.95,2.37-1.82v3.65l-2.37-1.83Zm-44.11-51.73-5.72-8.7v-24a2.71,2.71,0,0,1,2.76-2.66,3.19,3.19,0,0,1,2.09.81,2.51,2.51,0,0,1,.87,1.84v32.7Zm0-42.81-6-16.57V92.53q2.91-3.14,6-6.1v81.9Zm-.09,6.14a5.43,5.43,0,0,0-2.87-.86,5,5,0,0,0-3.9,1.88,5.64,5.64,0,0,0-4.25-1.88,6.29,6.29,0,0,0-3.23.92L762,154.79l7.12,19.68ZM761.07,151l-6.39,17.67V102.57c2.05-2.61,4.18-5.17,6.39-7.65V151Zm-5.42,25.61a4,4,0,0,1,2.47-.85,3,3,0,0,1,3.22,2.66v24l-6.66,10.26V178.45a2.4,2.4,0,0,1,1-1.81Zm6.78,28.12,6.57,10a29.52,29.52,0,0,0-5.49,4v-5.15h-2.17V221a34.12,34.12,0,0,0-3.17,4.27,39.14,39.14,0,0,0-3.49,7.17V216.7l7.75-11.94Zm-4.55,33.91v96.66h-3.2V241.92a3.25,3.25,0,0,1,3.2-3.25Zm61.21,97.57V316.73l2.49-4.51v26.23l-2.49-2.21Zm58.75,56.2A192.9,192.9,0,0,1,753.2,347h8.4l6.11,5.09h39.42l5.63-5.09h8.78a158.85,158.85,0,0,0,112.59,0h8.73l5.55,5.09h38.87l6.11-5.09h9.08a192.86,192.86,0,0,1-124.63,45.44Zm79.69-279.08,4,6.1v21.62h-2.9v-18l1-1.62-2.11-3.37-2.1,3.37,1,1.61v18h-3.88V120.72l4.95-7.36Zm-4.95,3.46V61.53c1.3.71,2.59,1.43,3.88,2.18v47.36l-3.88,5.75Zm30.54,4.36v19.9H979v-18l1-1.63-2.11-3.37-2.11,3.37,1,1.62v18h-2.9V119.46l4-6.09,5.24,7.81ZM979,111.06V79.64c1.42,1.2,2.8,2.43,4.17,3.68v34L979,111.06Zm-3.79,95.38v4.26a45,45,0,0,0-5.79-.55V210l6.8-10.37,7,10.58V213a33.87,33.87,0,0,0-5.79-1.87v-4.7Zm-5.79-.39V176.94a3.29,3.29,0,0,1,2.57-1.15,2.94,2.94,0,0,1,3.14,2.66v18.89l-5.71,8.71Zm7.89-8.71V178.45h0a2.7,2.7,0,0,1,2.75-2.66,3.52,3.52,0,0,1,2.21.83,2.61,2.61,0,0,1,.9,1.48v28.16l-5.86-8.92ZM980,173.61a5,5,0,0,0-3.88,1.87,5.57,5.57,0,0,0-4.19-1.87,5.67,5.67,0,0,0-2.57.62v-.44l6.85-19,6.9,19.09v.7a5.66,5.66,0,0,0-3.11-1Zm-3.79-25.19-6.85,19V143.25h13.75v24.26l-6.9-19.09Zm.56-58.91-4-6.08-4,6.08V71.7q4.1,2.94,8,6.13V89.51Zm-4-2.12,4,6.08v17.6l-2.9,4.42V100.3h1.94V98.13h-1.94V93.94H971.7v4.19h-2v2.17h2v15.2l-2.91-4.43V93.48l4-6.09Zm-1.09,32.07v21.62h-2.91v-18l1-1.62-2.11-3.37-2.11,3.37,1,1.62v18h-2.91V119.46l4-6.08,4,6.08Zm-5.08-29.95-4-6.08-4,6.08V65q4.08,2.46,8,5.16V89.51Zm-4-2.11,4,6.08v17.59l-2.91,4.43V100.3h2.08V98.13h-2.08V93.94h-2.18v4.19H959.7v2.17h1.83v15.19l-2.9-4.42V93.48l4-6.08Zm3.43,55.85V167l-6.68-18.44-6.79,18.82V143.25ZM959.38,155l6.67,18.44v.81a5.73,5.73,0,0,0-2.57-.62,5.55,5.55,0,0,0-4.19,1.87,5,5,0,0,0-3.88-1.87,5.05,5.05,0,0,0-2.83.89v-.69l6.8-18.83Zm6.67,22v29.11l-5.72-8.71V178.45h0a2.94,2.94,0,0,1,3.15-2.66,3.32,3.32,0,0,1,2.57,1.15Zm-13.47,1.51a2.79,2.79,0,0,1,2.83-2.66,2.69,2.69,0,0,1,2.74,2.66v18.89l-5.57,8.5V178.45Zm6.66,21.19L966.05,210v.15a42.57,42.57,0,0,0-5.64.56V206.5h-2.18v4.65a34.64,34.64,0,0,0-5.65,1.8v-3.14l6.66-10.17Zm8.62,12.64h0c15,0,23.11,7,27.67,14.25A37.53,37.53,0,0,1,1000,237a7.3,7.3,0,0,0-3-.61h0a7,7,0,0,0-4.59,1.59,31,31,0,0,0-7.47-14.84,26.85,26.85,0,0,0-12.91-8.4,13.39,13.39,0,0,0-4.19-.58h-.15l-.46,0-.64,0c-5.88.43-11.5,4-15.75,8.95a31.19,31.19,0,0,0-7.25,14.87,6.72,6.72,0,0,0-4.39-1.63h0a7.16,7.16,0,0,0-3.47.92,37.13,37.13,0,0,1,4.49-10.92c4.53-7.21,12.62-14.13,27.81-14.15Zm12.42,135.83v-2.22h2.16v-2.17h2.22v2.17h2.16v2.22h-2.16v2.16h-2.22v-2.16ZM935,342l3.73-3.33h62.13V342Zm34.76,6.14v-2.22h2.16v-2.17h2.22v2.17h2.17v2.22h-2.17v2.16h-2.22v-2.16Zm-10.53,0v-2.22h2.17v-2.17h2.22v2.17h2.16v2.22h-2.16v2.16H961.4v-2.16Zm-10.5,0v-2.22h2.17v-2.17h2.21v2.17h2.16v2.22h-2.16v2.16H950.9v-2.16ZM955,247.69v14.69a6.37,6.37,0,0,1-3.09,5.9l-.2-.15a31.22,31.22,0,0,0-5-2.12,3.94,3.94,0,0,0-1.36-.26,2.56,2.56,0,0,0-2.68,2.33l-.11-.06-.51-.24a6.54,6.54,0,0,1-2.23-5.4V247.69Zm-15.17-2.17v-6.85a3.71,3.71,0,0,1,3.35,3.41v3.44Zm54.88,75.11a2.38,2.38,0,0,0-1.21-.84v0l-.86-.32V242.08h0c0-1.61,1.08-3,3.22-3.37v96.62h-3.22v-6.18l1.58-3a8.14,8.14,0,0,0,1-3.63,3.11,3.11,0,0,0-.55-1.9Zm-1.75,1.3a1.1,1.1,0,0,1,.13.6,6.27,6.27,0,0,1-.78,2.61c-.82,1.55-3.84,7.25-4.81,9.1h-8.67a1.06,1.06,0,0,1,.19-.41,5.66,5.66,0,0,1,2.16-1.22c1-.38,1.92-.61,1.92-.62l.48-.12,3.35-6.69c.35-.28,1.21-1,2.22-1.68a8.87,8.87,0,0,1,3.45-1.7h0c.3,0,.29.08.33.12Zm-2.49,11.33v2.07h-1.09c.24-.47.64-1.19,1.09-2.07Zm-13.63,2.07h-1.95V322.8l3.76.95v7.64a4.37,4.37,0,0,0-1.44,1.24,3,3,0,0,0-.56,1.73,2.46,2.46,0,0,0,.19,1Zm-4.72-15.48.73-2,13.65,4.92-.71.56-13.67-3.46Zm-8.6-5.54c0-.2,0-.4,0-.56l.09-.62,8.3.82L970,319.32l-1.37-.34h-.06l-.35-.06,1.31-3.92-6-.68Zm.59,18.49c0-.16,0-.38,0-.67a14.62,14.62,0,0,0-.32-3.06,14,14,0,0,1-.34-3.46c0-.58,0-1.29,0-2.24,0-1.48-.06-2.8-.17-4,.15.11.32.22.49.32a12.89,12.89,0,0,0,3,1.11l0,14.51h-3.41l0-.05a4.26,4.26,0,0,0,.68-2.41v-.07Zm-21.25,2.53h-3V272.55c.56.39,1.23.82,1.91,1.24l1.44.87v56.69a1.08,1.08,0,0,0-1.23.83,2.58,2.58,0,0,0-.06.63,3.78,3.78,0,0,0,1,2.52Zm0-63.4a21.37,21.37,0,0,1-2.58-1.76,1,1,0,0,1-.39-.66.45.45,0,0,1,.06-.2,9.14,9.14,0,0,1,1.65.67c.91.44,1.87,1,2.62,1.3a8.23,8.23,0,0,0,2.9.91,1.7,1.7,0,0,0,.84-.2,1.46,1.46,0,0,0,.69-.9V271a1.4,1.4,0,0,0,0-.29,1.54,1.54,0,0,0-.77-1.28c-.88-.51-1.87-.65-3-1.23a.42.42,0,0,1-.11-.09s0-.19.5-.21a1.94,1.94,0,0,1,.62.12,31.51,31.51,0,0,1,4.59,1.94,2,2,0,0,1,1.06,1.37l-1,2.31c-.61,0-1.5-.07-2.41-.12s-1.6-.1-2.21-.15l-.73-.08-.11,0c-.38-.22-1.29-.76-2.27-1.37Zm20.36,2.28-.5,1.37-9.18-3.18.26-.61,9.42,2.42Zm-9.36-4.65A8.7,8.7,0,0,0,955,268.5v1.35l-1.12-.29Zm1.12-24h-3.74V238.7a5.53,5.53,0,0,1,2.43,1,3,3,0,0,1,1.31,2.37v3.44Zm5.9,11.78v14.06l-3.72-1V242.08a3,3,0,0,1,1.31-2.37,5.57,5.57,0,0,1,2.41-1v10.65a4.51,4.51,0,0,0-1.09.86,4.26,4.26,0,0,0-1,2.93,5.81,5.81,0,0,0,2.13,4.16Zm3.67-9.21c0,.09,0,.18,0,.27h-.11a5.18,5.18,0,0,0-1.07.11l-.26.07v-1.27a14.06,14.06,0,0,0,1.49.83ZM963,245v-6.34a5.84,5.84,0,0,1,3.39,1.55,4.18,4.18,0,0,1-.34.26,4.27,4.27,0,0,0-1.11,1.09c-.84,1.25-1.27,2.47-1.94,3.44Zm.68,5.56a4.26,4.26,0,0,1,.65-.07,2.5,2.5,0,0,1,1.65.71,5.09,5.09,0,0,0,2.71,1.32,2.82,2.82,0,0,0,.41,0,4.75,4.75,0,0,0,3.31-1.57,3.83,3.83,0,0,0,1.56.9c-2.32,4.32-4.82,4.87-7.09,4.93l-.58,0a9.54,9.54,0,0,1,.86-1l-1.57-1.5a14.06,14.06,0,0,0-1.72,2.23,3.93,3.93,0,0,1-1.09-.46l.26-.37a20.45,20.45,0,0,1,1.68-2l-1.54-1.55a21.54,21.54,0,0,0-1.92,2.33,2.65,2.65,0,0,1-.4-1.29,2.12,2.12,0,0,1,.49-1.48,4.06,4.06,0,0,1,2.33-1.07Zm16.83-7.78a4.24,4.24,0,0,1,1.44,1.82,8.07,8.07,0,0,1,.83,3.33,5.54,5.54,0,0,1-.1.95,8.89,8.89,0,0,1-1-2.17l-2.08.63a12.27,12.27,0,0,0,1.78,3.48,4.24,4.24,0,0,1-.64.32,10.89,10.89,0,0,1-1.81-3.4l-2.1.58a11.26,11.26,0,0,0,1.37,3,4.43,4.43,0,0,1-1.05-.47,5.24,5.24,0,0,1-.62-.46c-.14-.12-.18-.18-.19-.18l-.39-.41-.57.09h-.29c-.82,0-1.5-.47-1.83-1.66a1.33,1.33,0,0,1,0-.34c-.05-.76.82-1.8,1.44-3.15l.37-.92-.87-.45a26.47,26.47,0,0,1-3-1.5,3,3,0,0,1-1.62-2.55.5.5,0,0,1,0-.19v0a2.2,2.2,0,0,1,.74-.92,5.52,5.52,0,0,1,2.21-1,12.65,12.65,0,0,1,2.86-.35,5.59,5.59,0,0,1,4.06,1.38,2.48,2.48,0,0,1,.84,1.78,9.38,9.38,0,0,1-.32,1.72l-.13.81.74.35Zm1.85-3.35a5.36,5.36,0,0,1,2.12-.77v6.45a13.78,13.78,0,0,0-.58-1.48,7.23,7.23,0,0,0-1.7-2.31,6.1,6.1,0,0,0,.19-1.42,2.53,2.53,0,0,0,0-.47Zm-21.15,83.91c0,.93,0,1.64,0,2.24a15.91,15.91,0,0,0,.4,3.9c0,.18.06.34.08.5l-.73-.43-5.44-21.08,2.11-.82c.37,1,1,2.57,1.68,4.45a28.43,28.43,0,0,1,1.91,11.24Zm-1.55-16.45c.33-.13.74-.3,1.16-.49V310c-.48-1.28-.88-2.35-1.16-3.08Zm-8.64,3.34,2.45-1L958.35,328l-1-.57-6.31-17.2Zm4.14,17.6a25.68,25.68,0,0,1-4,2.48V317l4,10.85Zm-6.45-17.58.3.8v20.11a13.46,13.46,0,0,1-3.19.38h-.54v-56c.79.08,1.91.15,3,.22.24,0,.47,0,.71,0v23.85l-.07.07a7.92,7.92,0,0,0-2.68,5.71,6.59,6.59,0,0,0,2.45,4.88Zm-.26-4.72a.88.88,0,0,1,0-.16,4.53,4.53,0,0,1,.74-2.52l2,1.55-2.69,1.13Zm6.93-.55-4.85-3.83c.33-.33.7-.7,1.12-1.06,1,.81,3.07,2.61,4.08,3.63a7.55,7.55,0,0,1,1.31,1.8l-.2.07v0l-7,2.73a5,5,0,0,1-.65-.78l6.18-2.59Zm2-9.66a37.34,37.34,0,0,1,6-4l1.11-.57-.2,1.64-10,7c-.34-.3-.66-.56-.93-.79,1.15-1,2.5-2.05,4-3.33Zm-.24-2.58V279.34l3.78,1.54-.06,9.4a38.29,38.29,0,0,0-3.72,2.49Zm21.06-37.26.74,1.3.12.11,0,0-8.33,2.65a2.52,2.52,0,0,0-.29-.77l7.73-3.31Zm-3.2-1a15.84,15.84,0,0,0,1.06-1.8,5.53,5.53,0,0,0,.77.4l.28.5-2.11.9Zm.65,22.39,2.22-1.56.43.35L979,275s.5-.48,1.18-1.21c-.36,1-.67,1.9-.92,2.66l-3.6.41Zm2.84,1.86-.44,1.43-7.92.74a1.93,1.93,0,0,0,.13-.24l1.69-1.18,6.54-.75Zm-8.83-.29-1.18-1.61,5.38-4.71,2.23,1.78-6.43,4.54Zm9.11,3.84c.19.3.41.65.64,1.05s.43.77.62,1.17l-12.73,1.19.3-2.37,11.17-1Zm2,4.34,0,.19c0,.3.06.61.1.92l-14,1.4.15-1.23,13.74-1.28Zm.38,3.27c.05.42.1.81.14,1.15l-1.6.15h0l-13.21,1.26.14-1.11,14.55-1.45Zm-.37,8.27c.72-2.32,1.12-4,1.33-4.91l1.64-.09L983.6,292s-.38-3-.64-5.42a15.55,15.55,0,0,0-2.75-6c.08-.27.2-.65.37-1.17.38-1.21,1-3.14,2.06-6a34.39,34.39,0,0,0,1.53-6.05h0c.18-1.12.28-2.14.35-3v51.66c-.63-.35-1.34-.76-2.1-1.16-.52-.27-1.07-.55-1.64-.81V298.19Zm2.93-39.34a25,25,0,0,0-3-3.41l-1-1.8a6.23,6.23,0,0,0,3-1,4.88,4.88,0,0,0,1.84-2.19v10.24a4.26,4.26,0,0,0-.81-1.81Zm-2.92-.17a14.47,14.47,0,0,1,1.13,1.4,3.41,3.41,0,0,1,.44.82c0,.29,0,.79,0,1.44a28.61,28.61,0,0,1-.36,4.48,13.46,13.46,0,0,1-2.54,4.44c-.5.62-1,1.15-1.34,1.53l-7.36-5.85,3-6,7-2.23Zm-9.88,3.15-2.84,5.72.47.37-.65.67c-.14-.5-.27-1-.36-1.47a6.65,6.65,0,0,1-.11-1.14,2.49,2.49,0,0,1,.57-1.69c.4-.54,1.09-1.2,2-2.15h0l1-.3Zm-.65,7.45,1.87,1.5-4.94,4.32-1.14-1.55,4.21-4.27Zm-3.53-6.87c-.17.18-.33.38-.49.58a4.8,4.8,0,0,0-1,3,8.24,8.24,0,0,0,.17,1.56c.18.93.5,2.13.71,2.85l-1.83,1.86-1.25-.33V258.5a6.33,6.33,0,0,0,1.12.27,22.86,22.86,0,0,0,2.57.23v3.41ZM965,275.74l3.16,4.31a3,3,0,0,1-1.59,1.22h0a1.42,1.42,0,0,1-.36,0h-.11a3.3,3.3,0,0,1-2.19-.83,3.15,3.15,0,0,1-.45-.44l1.55-4.3Zm.43,7.69-.59,4.8c-.41.18-1,.47-1.76.84l.05-6.47a5.31,5.31,0,0,0,2.3.83ZM957,301.86l-1-.91,8.69-6.12.21,0-.42,2.35-7.48,4.7Zm7.71,5.75c.52-2.62,1-5,1-5v0l1.4-8,2.58-.24-4.07,16.79L964,311c.2-1,.43-2.23.66-3.37ZM972,294.13l3-.28-5.77,17.65-1.39-.14L972,294.13Zm5.35-.5,2.52-.24c-.05.24-.12.51-.2.81-.38,1.5-1,3.74-2,6.69a82.57,82.57,0,0,1-3.35,8c-.63,1.32-1.15,2.35-1.47,3l-1.38-.14,5.92-18.09Zm1.28,10.77V313a15.89,15.89,0,0,0-3.06-.81l-.47-.07c.82-1.63,2.24-4.53,3.53-7.76Zm-4.48,9.81,1.1.17a21.27,21.27,0,0,1,6.18,2.3c2,1,3.48,2,4.36,2.42.7.31,2.34.95,3.84,1.53-.33.19-.65.38-1,.59l-15.08-5.44.57-1.57ZM962,277.63l-.41,1.16-9.22-3.74.29-.66,9.34,3.24Zm-7,.83v16.07c-1.41,1.17-2.66,2.18-3.74,3.1V276.94l3.74,1.52Zm-9.1,55.29a13.18,13.18,0,0,0,5.69-1.15,27.18,27.18,0,0,0,5-3.07l5.3,3.1v.11c0,.06,0,.1,0,.1h0v0a2.13,2.13,0,0,1-.31,1.2l-.06.09h0c-.32,0-1.35-.22-3-.23-.38,0-.81,0-1.28.05-3.64.27-5.08.95-7.41.94h-.58c-3-.12-4.12-.3-4.73-1a1.31,1.31,0,0,1-.22-.27c.45,0,1,.07,1.58.07Zm15.92-30.23a18.15,18.15,0,0,1-2.51,1.23l-.13.05a10.91,10.91,0,0,0-.74-1.27l5.54-3.48-.34,1.88a6.18,6.18,0,0,1-1.82,1.59Zm2,13,2.78.31-.5,1.51a8.36,8.36,0,0,1-1.28-.56,2.17,2.17,0,0,1-1-1.26Zm8.87,5.71v13.08H969l-.05-14,3.77.95Zm11.78,3L982,330c-.32.09-.76.23-1.26.41V324.3l3.67.93Zm6-6.62c-1.47-.56-3.06-1.19-3.74-1.48V238.7a5.58,5.58,0,0,1,2.43,1,3,3,0,0,1,1.31,2.37v76.53Zm-4.8-82.18h0a8.2,8.2,0,0,0-4,1,5.56,5.56,0,0,0-.64-.77l-.2-.18c0-5.36-.26-10.68-1.9-14.86a12.08,12.08,0,0,0-.64-1.42A30.16,30.16,0,0,1,990,237.67a8.25,8.25,0,0,0-4.37-1.24Zm-7-1.31a9.6,9.6,0,0,0-3.22-.52,15.13,15.13,0,0,0-3.34.4,7.72,7.72,0,0,0-3.07,1.45l-.06-20a15.29,15.29,0,0,1,1.78.27h.05l.44.11c2.91.83,4.53,2.77,5.69,5.56,1.33,3.34,1.66,7.91,1.73,12.73Zm-8.66,8.57a15.48,15.48,0,0,0,2.22,1.16,5.92,5.92,0,0,0-1.09,3,3.44,3.44,0,0,0,.11.89c0,.09.07.18.09.27a3.06,3.06,0,0,1-2.11,1.35H969a3.15,3.15,0,0,1-1.61-.87,6.24,6.24,0,0,0-.76-.54c.07-.4.14-.9.2-1.39a1.11,1.11,0,0,0-.59-1.1c-.31-.14-.75-.37-1.15-.57.58-.91,1-1.75,1.37-2.47,0,.06,0,1.25-.1,1.73s.42.4,1.34.45a3.37,3.37,0,0,0,1.45-.21,2.33,2.33,0,0,0-.65-1,5.22,5.22,0,0,0-2-1,6.75,6.75,0,0,1,.34-.6,2.06,2.06,0,0,1,.6-.57,5.43,5.43,0,0,0,.63-.51,6.13,6.13,0,0,0,1.92,1.94ZM962,236.43h-.05a8.07,8.07,0,0,0-4.78,1.54c0-4.88.28-9.89,1.42-13.8,1.39-4.52,3.56-7.38,8.15-7.75l0,21.32a9.14,9.14,0,0,0-4.79-1.31Zm-5.5-12.87C955.24,227.87,955,233,955,238a8.05,8.05,0,0,0-4.82-1.56h0a8.13,8.13,0,0,0-4.39,1.26,29.44,29.44,0,0,1,6.62-13.08,27.8,27.8,0,0,1,5.85-5.16,16.76,16.76,0,0,0-1.73,4.11Zm-9.85,16.15a5.66,5.66,0,0,1,2.42-1v6.82h-3.73v-3.44a3,3,0,0,1,1.31-2.37ZM998,335.33V238.7a3.7,3.7,0,0,1,1.9.87,3.06,3.06,0,0,1,.88,1.69,1.36,1.36,0,0,0,0,.21c0,.18,0,.36.05.54v93.32Zm-.63-109.95a33.62,33.62,0,0,0-3.12-4.24v-7.5h-2.17v5.24a30.92,30.92,0,0,0-5.54-4.15l6.55-10,7.76,11.87v16a39.92,39.92,0,0,0-3.48-7.2Zm-3.19-22.94v-24h0a3,3,0,0,1,3.22-2.66,4.08,4.08,0,0,1,2.48.85,2.42,2.42,0,0,1,1,1.72v34.28l-6.67-10.2Zm6.53-27.87a6.3,6.3,0,0,0-3.31-1,5.68,5.68,0,0,0-4.26,1.88,5,5,0,0,0-3.87-1.88,5.18,5.18,0,0,0-2.79.82l7.1-19.61,7.13,19.75Zm-6-22.94V95.08q3.16,3.57,6.11,7.32v66.14l-6.11-16.91Zm-2.18-.39-6.13,16.95V86.43q3.15,3,6.13,6.25v58.56Zm-3.29,24.55a2.71,2.71,0,0,1,2.74,2.66v24l-5.58,8.5V178.16a2.84,2.84,0,0,1,2.84-2.37Zm-45.89,2.66a2.71,2.71,0,0,1,2.74-2.66,3.48,3.48,0,0,1,2.19.83,2.48,2.48,0,0,1,.94,1.83v33.1l-5.86-9.1v-24Zm5.87-9.9-6.14-17V56.77q3.11,1.44,6.14,3V168.55Zm-.16,5.95a5.67,5.67,0,0,0-3-.89,4.94,4.94,0,0,0-3.86,1.87,5.6,5.6,0,0,0-4.19-1.87,5.94,5.94,0,0,0-3.17.92L942,154.88l7.08,19.62ZM941,151.45l-6.17,17V53.24c2.07.82,4.13,1.65,6.17,2.55v95.66Zm-5.25,25.18a3.72,3.72,0,0,1,2.38-.84,2.94,2.94,0,0,1,3.14,2.66v24l-6.44,9.82V178.38a2.46,2.46,0,0,1,.92-1.75Zm6.6,28.13,6.5,10.08a30.74,30.74,0,0,0-5.34,4v-4.9h-2.17v7.16a31.55,31.55,0,0,0-3.08,4.18,39.4,39.4,0,0,0-3.43,7.09V216.23l7.52-11.47Zm-7.5,37.32a3.19,3.19,0,0,1,1.21-2.4,4.61,4.61,0,0,1,1.6-.84v23.54c0,.05,0,.11,0,.18h0V312l-2.83-5.13V242.08Zm1.64,74.65v19.52L934,338.46V312.23l2.49,4.5Zm78.35,19q-4.34,4.34-8.95,8.38V292.27a158.54,158.54,0,0,0,0-186.9V98.1h0l-2.52-4.16-2.44,4.16h0v0h0v.78a157.75,157.75,0,0,0-14.42-15.49V79.75l-3.32-4.6v5.23a158.84,158.84,0,0,0-30.54-21.31V56.31l-3.32-4.85v5.87c-4.69-2.37-9.53-4.52-14.48-6.43V43.44h0l-2.46-4.21-2.52,4.21h0v5.63a158.83,158.83,0,0,0-22.14-5.91V16.6h0L906,14.48l-1.65,2.12h0v26c-1.7-.28-3.4-.56-5.12-.79V6.26a193.68,193.68,0,0,1,115.57,329.45Zm-.25-151.65v-2h-2.18v2h-2v2.17h2v4.17l-6.52,10V162.89l15,21.51v15.69l-6.33-9.69v-4.17h2v-2.17Zm-1.09,8.65,7.42,11.36v5.29a5.88,5.88,0,0,0-3.28-1,5.38,5.38,0,0,0-4.15,1.91,5.46,5.46,0,0,0-4.21-1.91,6.15,6.15,0,0,0-3.39,1v-5l7.61-11.62Zm5.33,38.71a5.31,5.31,0,0,0-3-4.76h5.08v9.5h-5a5.31,5.31,0,0,0,2.94-4.74Zm-5.29,4.19a4.19,4.19,0,1,1,4.18-4.19,4.19,4.19,0,0,1-4.18,4.19Zm1-12.28V213.2h0a2.88,2.88,0,0,1,3.05-2.66,3.7,3.7,0,0,1,2.35.84,2.43,2.43,0,0,1,.93,1.68v10.28Zm-7.75-12a3.92,3.92,0,0,1,2.44-.85,2.94,2.94,0,0,1,3.13,2.67v10.13h-6.52V213.06a2.4,2.4,0,0,1,.95-1.68Zm4.39,15.28a5.29,5.29,0,0,0,0,9.5h-5.29v-9.5Zm13,12.82V154.9l-1.68-2.68-1.64,2.68h0v25.7l-15-21.51v-50a156.34,156.34,0,0,1,0,179.42v-49Zm-8.63-37-2.11-3.37-2.1,3.37,2.1,3.37,2.11-3.37Zm-69.7-168.2,2,.91.89-2,2,.88.91-2-2-.89.89-2-2-.91-.88,2-2-.9-.91,2,2,.89-.88,2Zm-.39,5.67-2-.91-.89,2-2-.89-.91,2,2,.89-.89,2,2,.91.9-2,2,.9.9-2-2-.89.89-2Zm82.15,54.26.12-.09.1-3.51-3.38-.47-.1.07,0,1.38-11.2,8.6-.55-.2-.28-2.94s9.1-7,9.92-7.62,1.26-.21,1.26-.21l.14-.11-.07-4-3.57-.44-.12.09a3.19,3.19,0,0,1,.48,1.8s-9.7,7.45-10.25,7.86a1.09,1.09,0,0,1-1.07.2l-.14.11.61,5a56.81,56.81,0,0,1,6.9,2.32l10-7.64a1.17,1.17,0,0,1,1.22-.17Zm-56.09-40L969.69,53l-1.21,1.8-1.8-1.2-1.23,1.84,1.8,1.21-1.2,1.79,1.84,1.23,1.21-1.8,1.8,1.21,1.22-1.85L970.33,56l1.2-1.81Zm-70.69,67,2.11,3.37,2.1-3.37-2.1-3.37-2.11,3.37Zm65.1-73.9.08-.16L962.5,43.4l7.15-2.73-.35-.76-1.09.49a27.71,27.71,0,0,1-3.05-4.62A50.72,50.72,0,0,1,957,34.5s-2.09,4.07-2.46,4.77a1.22,1.22,0,0,1-1.21.58l-.07.14,3.81,4.43-9.29,3.68.43.55L950,48a26.81,26.81,0,0,1,3.81,4.4,45.08,45.08,0,0,1,8.37.77s2.44-4.73,2.77-5.34a1.1,1.1,0,0,1,1-.56Zm-8.19,4.56-.64,0a38.94,38.94,0,0,0-4-4.81l6.14-2.46,1.47,1.6-3,5.69Zm2.33-8.5-1.48-2,2.68-5.15.37,0a39.43,39.43,0,0,0,3.44,5.29l-5,1.82Zm49.06,29.24.13-.13-1-4.44-3.52-.23-.63-3.75a18.24,18.24,0,0,1-3.67,0l-.1.1c.54.54,1,1.54.84,1.73l-9.17,9.57a1.17,1.17,0,0,1-1.18.35l-.1.11.43,3.48,3.4,0,.09-.1-.23-1.36,9.12-9.51,1.58.14.47,2s-8,8.4-8.77,9.14-1.21.41-1.21.41l-.12.12.67,4,3.59-.1.11-.11a3.16,3.16,0,0,1-.74-1.71s8.46-8.82,9-9.32a1.08,1.08,0,0,1,1-.35Zm6.09,8.42a1.09,1.09,0,0,1,1-.28l.13-.12-.19-4a13.63,13.63,0,0,1-3.65-.26l-.11.1s1.26,1.31.48,2l-9.39,8.47c-.77.69-1.24.32-1.24.32l-.13.12.38,4,3.6.16.11-.1a3,3,0,0,1-.61-1.76l9.57-8.63Zm-27.7-9.91s7.69-9.8,8.19-10.42a1.19,1.19,0,0,1,1.13-.48l.09-.12-.77-3.41-3.38.38-.08.1.37,1.33L985,68.83h-1.6l-.66-2,7.81-10c.64-.81,1.17-.53,1.17-.53l.1-.13-1-3.86-3.57.45-.08.13a3.07,3.07,0,0,1,.89,1.62l-8,10.16a1.09,1.09,0,0,1-1,.46l-.13.14,1.4,4.32,3.54-.12,1,3.67a18.07,18.07,0,0,1,3.66-.36l.07-.13c-.6-.47-1.18-1.41-1-1.63ZM842.36,384.71l3.73-2.88s0-1.1.06-1.43a36.84,36.84,0,0,0-4.35,2,9.11,9.11,0,0,0,.56,2.3ZM1023,74.61l-4.7.07s-.68.87-.92,1.09a35.88,35.88,0,0,0,4.69,1,9.23,9.23,0,0,0,.93-2.18ZM866.2,28.78l-2.1-3.38L862,28.78l2.11,3.36,2.1-3.36ZM859.5,58.5l-2.11-3.37-2.11,3.37,2.11,3.37,2.11-3.37ZM743.09,234.22v-1.73h1.74v-2.18h-1.74v-1.74h-2.17v1.74h-1.75v2.18h1.75v1.73ZM886.45,58.5l-2.1-3.37-2.11,3.37,2.11,3.37,2.1-3.37Zm-6.56-35.81-2.1-3.36-2.1,3.36,2.1,3.37,2.1-3.37ZM740,202.46l2.11,3.37,2.11-3.37-2.11-3.37L740,202.46ZM893.39,28.91l-2.12-3.37-2.1,3.37,2.1,3.37,2.12-3.37Zm-141.64,48,.11.11,4.47-1.14,1.23,7.41a15.55,15.55,0,0,1,5-1.46,29.56,29.56,0,0,1,2.14-6.28l-4.07-4.42a1.12,1.12,0,0,1-.29-1.06l-.12-.13-3.81,1.22-.93-6a17.53,17.53,0,0,1-5.11.65,31.78,31.78,0,0,1-2.55,5.93l3.63,3.94a1.15,1.15,0,0,1,.28,1.19Zm6.71-3.18,4.34,4.72-.13.5a25.79,25.79,0,0,0-4.83,1.16l-1-5.89,1.62-.49Zm-8.31-4.91a28.92,28.92,0,0,0,5.14-.5l.65,4.72-2,.33-3.93-4.27.1-.28ZM769.9,58.17c-.89,1.63-.9,3.32-.9,5.54a8.93,8.93,0,0,1,5,0V58a10.54,10.54,0,0,1,1.43-5.36l1-1.53a9.78,9.78,0,0,1,4.56.17V47.05c0-2.73.66-4,1.16-4.61h1.16c3.84,0,6.43-.14,8.29-1.59a15,15,0,0,0-1.33,5.91c0,1.29,0,4,0,5.27l-.26.3a6.25,6.25,0,0,1-3.63,1.49h-4.87a14,14,0,0,1,0,4.57,10.24,10.24,0,0,0,4.28-.67,9.7,9.7,0,0,0-.82,4.5,10.79,10.79,0,0,1,5.15,0V56.85a9.43,9.43,0,0,1,.68-4.23,10.35,10.35,0,0,1,4,.08V43.51c0-1.69-.36-6.31,1-8.3l1.62-2.44-.59-.4-.47.72-1.61,2.44,0,0-.22.32c-.79.83-2.51,2-6.06,2h-3.25c-1.63,0-2.59-.75-2.59-1.31h-.93V41.7c-.27.19-.75.56-1.31,1a6.44,6.44,0,0,1-3.65,1.49h-4a12.29,12.29,0,0,1,0,4.32,9.24,9.24,0,0,0,3.63-.46,7.9,7.9,0,0,0-.39,2.57l-1.1,1.67c-.31.3-2.21,2.07-4.21,2.07h-5.74a13.75,13.75,0,0,1,0,4.57,12.64,12.64,0,0,0,5.06-.81Zm40.24-18.25a9.37,9.37,0,0,0-1,4.82,10.59,10.59,0,0,1,5.16,0V39.37a10.06,10.06,0,0,1,.63-4.16l1.92-2.89a11,11,0,0,0,5-1.05,8.53,8.53,0,0,0-1,4.55,9.77,9.77,0,0,1,4.72,0V30.9c0-3.08.69-4,.69-4l2.75-4.16h4.13c.45,0,.87,0,1.28.06-.73.85-1.77,2.07-2.78,3.27-1.71,2-2,3.71-2,6.1a10.1,10.1,0,0,1,5,0V27a8.85,8.85,0,0,1,.67-4.11c4.86.75,6.55,3.88,6.55,3.88l.61-.35-2.8-4.54c-2.36-3-5-3.61-8.22-3.71-1.5-.05-12,0-13.88,0,.84.85.87,2.93.48,4.09a6.76,6.76,0,0,1-4,1.89h-5.73a14,14,0,0,1,0,4.57c3.47,0,6.16-.56,8.37-3.52l1.93-2.5h9.58l-2,2.94c-.31.3-2.22,2.08-4.23,2.08h-5.73a13.82,13.82,0,0,1,.09,4l-1.59,2.4h0A6.84,6.84,0,0,1,810.7,36h-4.87a13.49,13.49,0,0,1,0,4.57,10.18,10.18,0,0,0,4.31-.69Zm20.94,168h2.18v-1.75H835V204h-1.75v-1.75h-2.18V204h-1.73v2.17h1.73v1.75Zm3.12-74.51L832.09,130,830,133.4l2.09,3.38,2.11-3.38ZM847.58,221h2.17v-1.75h1.76v-2.17h-1.76v-1.75h-2.17v1.75h-1.74v2.17h1.74V221Zm5-103.23-2.11,3.37,2.11,3.37,2.11-3.37-2.11-3.37Zm53.18,103.25h2.18v-1.75h1.74v-2.17h-1.74v-1.75h-2.18v1.75H904v2.17h1.74v1.75ZM739.11,75a35.11,35.11,0,0,0,.55-4.77,9.12,9.12,0,0,0-2.26-.71l.52,4.68a13.69,13.69,0,0,1,1.19.8ZM905.68,94.12h2.17V91.93H910V89.75h-2.18V87.57h-2.17v2.18h-2.19v2.18h2.19v2.19ZM900.24,58.5l-2.11-3.37L896,58.5l2.1,3.37,2.11-3.37Zm-2.87,35.62h2.17V91.93h2.19V89.76h-2.19V87.57h-2.17v2.19h-2.2v2.17h2.2v2.19ZM832.13,210.4a5.29,5.29,0,1,0-5.29-5.3,5.3,5.3,0,0,0,5.29,5.3Zm0-9.48A4.19,4.19,0,1,1,828,205.1a4.19,4.19,0,0,1,4.18-4.18Zm-89-114.43-.15-.11-3.59,1.75-1.79-5.75a17.33,17.33,0,0,1-5,1.39A31.64,31.64,0,0,1,731,90l4.18,3.37a1.17,1.17,0,0,1,.46,1.14l.11.1L740,92.82l2.3,7.15a16.14,16.14,0,0,1,4.75-2.19,30.27,30.27,0,0,1,1.2-6.51l-4.68-3.78a1.12,1.12,0,0,1-.43-1Zm-5.82,4.19L732.81,87l.06-.29a28.32,28.32,0,0,0,5-1.25l1.33,4.58-1.87.61Zm9.39,4.25a25.91,25.91,0,0,0-4.6,1.85l-1.86-5.68,1.54-.71,5,4-.06.52Zm91.74,276.25-5.52,0a2.57,2.57,0,0,1-1.68-.69,6.16,6.16,0,0,0-.09-1.1,6,6,0,0,0-.82-2.83,8.21,8.21,0,0,0,2.47.38H835a4.88,4.88,0,0,1-.57-2.47,11.42,11.42,0,0,1,.3-2.46h-6.87a4.2,4.2,0,0,1-3.18-1.87c-.06-.1-.13-.18-.19-.28h0c-.72-1.07-1.59-2.34-2-3h-7.55a7,7,0,0,0,3.11-2.54c.61-.86,1.3-1.95,1.3-1.95l-3.5-2s-2,3.16-2.71,4.09a5,5,0,0,1-4.16,2.35l0,0h-.71c-5.49,0-7.6-3.59-7.6-3.59l-.64.37,3,4.52,0,0,3.52,5.32a13,13,0,0,1,1.25,6.21v4.57a18.5,18.5,0,0,1,4.82,0c0-1,0-2.55,0-2.55a7.09,7.09,0,0,0-1.14-3.42,7.16,7.16,0,0,0,2.85.58h2.44a9.24,9.24,0,0,1-.25-2.3,9.58,9.58,0,0,1,.25-2.11h-6.18c-2.18,0-3.83-2.07-3.84-2.08l-1.59-2.4c1.63.93,3.74,1.26,7,1.26h12.37a15.23,15.23,0,0,1,1.29,6.75v2.79a15.92,15.92,0,0,1,5-.07l.06.11a6.73,6.73,0,0,1,.5,3.13v4.74a8.24,8.24,0,0,1,4.1,0,7.39,7.39,0,0,0-.86-4.42,5.71,5.71,0,0,0,2,.33h2.12a3.55,3.55,0,0,1-.47-1.83,5.43,5.43,0,0,1,.29-1.69ZM719.22,140.6c.82,1.37.18,1.79-1.44,3.1l-11.69-4.08-.35-.69c.67-.49,4.37-1.11,4.37-1.11l0-.17a13.15,13.15,0,0,1-1.89-3.08l-.17,0L703.69,136l1.44,3.18-3.17,1.8a18.58,18.58,0,0,1,1.52,3.33l.14.06c.25-.73,1-1.59,1.22-1.49l12,4.19a1.16,1.16,0,0,1,.81.93l.15,0a28.81,28.81,0,0,1,4.14-3.55l-2.09-4.14-.64.3Zm36.66-56.07-.12-.1a3,3,0,0,1-1.68.78l-9.56-8.65a1.11,1.11,0,0,1-.38-1l-.14-.13-4,.6a14,14,0,0,1,.11,3.67l.11.1s1.18-1.4,2-.69l9.37,8.49c.77.69.44,1.2.44,1.2l.14.12,3.92-.78-.21-3.59ZM726.72,126a3.17,3.17,0,0,1-1.35,1.28l-12.82-5.65a1.07,1.07,0,0,1-.68-.85l-.17-.07-4.48,3.1s.74,1.64,1.06,6.71l11.08,4.89a1.15,1.15,0,0,1,.74,1l.14.07,4.42-2.78,1.71,3.52,3.55-2.78L726.85,126l-.13-.07Zm-5.79,6.26-12.41-5.39,0-.16,2.8-1.89,11.57,5.1.46,1-2.39,1.38Zm4.4,1.49-1.57-3.43,4.24,1.87-2.67,1.56Zm5.94-18.44c.57,1.49-.68,2-3,3.5l-3.85-2.18a43.64,43.64,0,0,1-1.56-7.48l-.16-.09-6.5.06a33.16,33.16,0,0,1-.5,6.54l11.07,6.25a1.15,1.15,0,0,1,.63,1l.14.08a35.37,35.37,0,0,1,5.76-3.48L731.94,115l-.67.24Zm-14.39-2.92,5.6-.15s.53,2.23,1,3.87l-6.59-3.72ZM738,107.08l3.73-1.44-.81-3.5-.13-.08a3.11,3.11,0,0,1-1.53,1.06l-10.91-6.9a1.12,1.12,0,0,1-.54-1l-.16-.1L723.53,97l.48,3.5-3.56,1.36a18.22,18.22,0,0,1,.73,3.6l.13.08c.41-.65,1.28-1.32,1.52-1.17l11.2,7.09a1.18,1.18,0,0,1,.58,1.08l.13.08,3.32-1.11-.71-3.32-.11-.07-1.29.49-11.13-7-.17-1.58,1.91-.86,10.69,6.77c.87.56.64,1.11.64,1.11l.15.09Zm56,60.54,2.11,3.37,2.11-3.37-2.11-3.37L794,167.62Zm19.65,3.56,2.1-3.37-2.1-3.37-2.11,3.37,2.11,3.37Zm-51.49-.09,2.1-3.37-2.1-3.38-2.11,3.38,2.11,3.37ZM709,156a44.1,44.1,0,0,1-3.42-6.84l-.17-.05-6.29,1.72a31.75,31.75,0,0,1,1.19,6.45l12.31,3.22a1.17,1.17,0,0,1,.87.86l.15,0a35.59,35.59,0,0,1,4.69-4.82l-2.44-4-.58.41c.92,1.29-.15,2.14-2,4.15L709,156Zm-8.36-2.19,5.39-1.57s1.07,2,1.92,3.49l-7.31-1.92Zm80.84,13.95-2.1-3.38-2.11,3.38,2.11,3.37,2.1-3.37Zm-77.65,24.66a44.12,44.12,0,0,1-5-5.74h-.17L693,189.9a31.59,31.59,0,0,1,2.79,5.93H708.5a1.17,1.17,0,0,1,1.07.6h.16a34.73,34.73,0,0,1,3.31-5.85l-3.39-3.25-.46.53c1.23,1,.42,2.12-.91,4.53Zm-8.64,0L700,189.5s1.56,1.69,2.75,2.88Zm20.08,52.26-11.79,3.91a1.12,1.12,0,0,1-1.08-.16l-.17,0L701,252.71l3.76,2.22-6,2-1.6,3.26a17.58,17.58,0,0,1,3.25,1.71l.14-.05c-.24-.73-.2-1.83.06-1.91l18-6c1-.33,1.26.19,1.26.19l.16,0,1.25-3.81-3.23-1.58-.13.05a3.24,3.24,0,0,1-.15,1.85L705.4,254.7l-1.4-.82.58-2.06,12.79-4.24c3.67-1.22,4.4-1.11,4.4-1.11l.08-.31s-4-2.35-6.55-1.51Zm-24.95-61.24.15,0s.16-1.82,1.2-1.69l18,2.15c1,.13,1.06.73,1.06.73l.17,0,2.74-2.91-2.23-2.82h-.15a3.12,3.12,0,0,1-.92,1.61l-18.29-2.18a1.11,1.11,0,0,1-.9-.62l-.18,0-2.89,2.78a13.92,13.92,0,0,1,2.21,2.93Zm18.2,54.85a43.91,43.91,0,0,1-6.44-4.12l-.18.05-4.5,4.71a31.87,31.87,0,0,1,4.34,4.92s11.45-3.34,12.2-3.57a1.19,1.19,0,0,1,1.2.29l.15,0a35.41,35.41,0,0,1,1.54-6.55l-4.16-2.18-.29.65c1.46.62,1,1.9.39,4.6l-4.25,1.24Zm-8.28,2.42,3.8-4.13s2,1.18,3.45,2l-7.25,2.12Zm-8.66-67.74c.15-.76.72-1.71,1-1.65l17.58,3.36a1.15,1.15,0,0,1,.94.79l.16,0,3.86-4-2.69-6.44-11.93-2.25a1.11,1.11,0,0,1-.86-.67l-.18,0L695.82,166l1.75,2.82-5.13-1-3,2.07a18,18,0,0,1,2,3.07l.14,0Zm8.37-6.75,13.18,2.49.07.09-2.3,2.52-12.69-2.39-.28-.53,2-2.18Zm9.08,51.36,2.41,2.45a11.17,11.17,0,0,0,2.45-2.41l-2.41-2.45a10.37,10.37,0,0,0-2.45,2.41ZM694.8,229.32l3.12,1.84.14,0a3.09,3.09,0,0,1,.4-1.82l5.85-4.43,11.74,3.91a32.57,32.57,0,0,1-1.69-3.72c-6.35-1.95-17.94-5.91-19.17-6.6l-.16,0-1.67,3.08,2.78,2,.13,0c-.12-.62.6-1.24.6-1.24l4.35,1.4-5.42,3.82-1,1.84Zm24.08,33.36a20.51,20.51,0,0,0,.36,5.39c-1.93-1.71-3.91-1.92-7.07-1.92a14.58,14.58,0,0,1,0,5.06h4.48a11.38,11.38,0,0,1,6.11,2.18l1.14,1.72c-1-.66-2.19-.77-4.18-.77a12.57,12.57,0,0,1,0,4.24h3.94a5.89,5.89,0,0,1,3.31,1.27v3.93a18.51,18.51,0,0,0,3.56,10.13c.18.27.34.52.51.76-1.82-1.33-3.49-1.17-7-1.12l-.43-.57-6-9.09h0l0-.07c-.15-.24-.65-1.23-.65-3.85v-4.56a9.7,9.7,0,0,1-4.7,0c0,1.95,0,3,1.19,4.6a11.37,11.37,0,0,0-4.26-.56,12.08,12.08,0,0,1,0,4.24h4.8a5.22,5.22,0,0,1,4,1.92l1.73,2.62c-1.7-1.37-3.43-1.57-6.4-1.57a14.71,14.71,0,0,1,0,5.21h5.41a7.22,7.22,0,0,1,4.24,1.75,6.84,6.84,0,0,1,.34,4.32l4,.13c5.32,0,8.69,4.07,9.45,5.1l.6.91a13.76,13.76,0,0,0,.62,3.25l0,0c-3.36-4-5-3.77-12.17-3.77a12.67,12.67,0,0,1,.13,4.4h6.14c5.37,0,8.47,4.71,8.47,4.71h0c.14.23.29.45.43.67,1.53,2.3,2.81,4,2.81,4l.63-.39s-1-1.44-1.51-2.21c-1-1.62-1.1-6.36-1.1-8.87,0-.62.07-12.14.07-12.68v-3.72a14.59,14.59,0,0,1-4.54-.16v13.33l-3.3-5s-.87-1.37-1.35-2.15c-1-1.62-1.05-6.56-1.06-9.07,0-.62.06-1.07.06-1.6,0-1.1.1-5,1.6-5,0-.24,0-.5,0-.84h-5.75l-.16-.21-2.93-4.42a13.26,13.26,0,0,1-.71-4.4v-7.28a9.33,9.33,0,0,1-4.67,0Zm-22.19-51.43,12.34-1a1.18,1.18,0,0,1,1.12.51h.14l2.7-4.86-4.29-5.51-13.37,1.05a1.11,1.11,0,0,1-1-.42l-.17,0c-2.08,3.73-4,6.83-6.46,10.66a13.3,13.3,0,0,1,2.94,2.39l.16,0c-.08-.92,3.41-6.36,3.41-6.36l2.49,3.51Zm-.73-6.38,14.38-1.14.09.1-1.57,3-13.69,1.07-.57-.74,1.36-2.31Z"/></g><g class="cls-6"><line class="cls-7" x1="651.4" x2="651.4" y2="397.42"/><line class="cls-8" x1="196.72" x2="196.72" y2="397.42"/></g><g class="cls-9"><path class="cls-10" d="M105.13,107c9.76,4.38,5.14,5.43,1.69,7.27-3.74,2-83.33,47.24-83.33,47.24V303L56,322.31V180.82s82.84-46.94,83.5-47.29c0,0,4.69-2.32,11.86.9,9.76,4.38,5.14,5.43,1.69,7.27-3.74,2-83.13,47.42-83.13,47.42V330.57l9.3,5.52S170,283.6,170,283.6V272.84L79.19,325.08V194.61s81.9-46.88,82.6-47.33c1.76-.83,14.45-8,1.39-16.84-3-2-8.73-5.9-16.44-6.89-6.08-.78-12.39,2-13.25,2.21-2.41,1.32-86.81,49.54-86.81,49.54V305.77l-13.91-8.26V167s82.13-46.73,82.83-47.17c1.76-.83,14.45-8,1.39-16.84-3-2-8.73-5.9-16.43-6.89-6.09-.78-12.4,2-13.26,2.21C84.88,99.67,0,147.59,0,147.59l9.3,5.52s83.31-46.65,84-47c0,0,4.7-2.32,11.86.9"/></g><path class="cls-2" d="M246.87,148.82h6.76V171c0,10.34-6.37,13.72-13.57,13.72S226.49,181.3,226.49,171V148.82h6.76v22.44c0,5.73,2.25,7.74,6.81,7.74s6.81-2,6.81-7.74Z"/><path class="cls-2" d="M261.72,184.19V148.82h7l13.92,24.1h.1v-24.1h6.37v35.37h-6.52L268.19,159h-.1v25.18Z"/><path class="cls-2" d="M297.88,184.19V148.82h6.76v35.37Z"/><path class="cls-2" d="M309.93,148.82h6.67l6.27,26.06h.1l6.56-26.06h6.67l-9.36,35.37h-7.55Z"/><path class="cls-2" d="M340.8,184.19V148.82h23.42v5.68H347.57v8.43h12.1v5.68h-12.1v9.9h17.19v5.68Z"/><path class="cls-2" d="M370.45,184.19V148.82h14.11c8,0,11.27,4.65,11.32,10.48.05,4.36-2.16,7.89-6.47,9.12l7.79,15.77h-7.5L383,169.79h-5.83v14.4Zm6.76-19.89h5c5.29,0,6.91-1.67,6.91-5s-2-5-5.74-5h-6.17Z"/><path class="cls-2" d="M419.84,158.23a6.5,6.5,0,0,0-6.32-4.61c-2.94,0-5,1.18-5,3.92,0,6.07,18.23,4.8,18.23,16.27,0,7.25-4.56,10.87-12.4,10.87-5.78,0-11.22-3.23-13.23-8.38l5.59-2.45c1.62,3.34,3.72,5.54,7.69,5.54,3.38,0,6-1.27,6-4.7,0-7-18.23-5.59-18.23-16.46,0-6.33,5.29-9.9,11.42-9.9,5.68,0,10.39,2.84,12.49,8Z"/><path class="cls-2" d="M434,184.19V148.82h6.76v35.37Z"/><path class="cls-2" d="M471.83,148.77v5.68h-9.26v29.74h-6.76V154.45h-9.27v-5.68Z"/><path class="cls-2" d="M483.64,148.77h8.42l10.05,35.42H495.4l-2-7.64H482.27l-2.11,7.64h-6.71Zm2.45-8.09v5.69h-5.88v-5.69ZM483.73,171H492l-4-15.38h-.1Zm11.67-30.28v5.69h-5.88v-5.69Z"/><path class="cls-2" d="M529,148.77v5.68h-9.26v29.74H513V154.45h-9.26v-5.68Z"/><path class="cls-2" d="M550.52,158.23a6.49,6.49,0,0,0-6.32-4.61c-2.94,0-5.05,1.18-5.05,3.92,0,6.07,18.23,4.8,18.23,16.27,0,7.25-4.56,10.87-12.4,10.87-5.78,0-11.22-3.23-13.22-8.38l5.58-2.45c1.62,3.34,3.72,5.54,7.69,5.54,3.38,0,6-1.27,6-4.7,0-7-18.23-5.59-18.23-16.46,0-6.33,5.3-9.9,11.42-9.9,5.68,0,10.39,2.84,12.49,8Z"/><path class="cls-2" d="M562.09,174.1v-5.29h12v5.29Z"/><path class="cls-2" d="M226.2,201.82h13.13c7,0,11.61,2.35,12,8.67,0,3.67-1.52,6.52-5.39,8,4.61,1.86,6.17,4,6.17,9.35s-3.87,9.31-12.88,9.31h-13ZM233,215.93h6.76c3.23,0,4.85-1.86,4.85-4.31s-1.62-4.32-4.85-4.32H233Zm0,15.78h6.76c3.92,0,5.63-1.77,5.63-5.15s-1.71-5.14-5.63-5.14H233Z"/><path class="cls-2" d="M260.3,237.19V201.82h6.76v35.37Z"/><path class="cls-2" d="M276.17,201.82h13.14c7.05,0,11.61,2.35,12,8.67,0,3.67-1.52,6.52-5.39,8,4.61,1.86,6.17,4,6.17,9.35s-3.87,9.31-12.88,9.31h-13Zm6.77,14.11h6.76c3.23,0,4.85-1.86,4.85-4.31s-1.62-4.32-4.85-4.32h-6.76Zm0,15.78h6.76c3.92,0,5.63-1.77,5.63-5.15s-1.71-5.14-5.63-5.14h-6.76Z"/><path class="cls-2" d="M309.35,237.19V201.82h6.76v29.69h15.38v5.68Z"/><path class="cls-2" d="M338,237.19V201.82h6.76v35.37Z"/><path class="cls-2" d="M366.38,237.68c-9.65,0-14.84-6.61-14.84-18.18s5.19-18.17,14.84-18.17,14.85,6.61,14.85,18.17S376,237.68,366.38,237.68Zm0-30.67c-5.53,0-8.08,4.21-8.08,12.49s2.5,12.5,8.08,12.5,8.09-4.21,8.09-12.5S371.92,207,366.38,207Z"/><path class="cls-2" d="M409.5,201.77v5.68h-9.26v29.74h-6.76V207.45h-9.26v-5.68Z"/><path class="cls-2" d="M415.09,237.19V201.82h6.76v14.11h13.62V201.82h6.76v35.37h-6.76V222H421.85v15.19Z"/><path class="cls-2" d="M451,237.19V201.82h23.42v5.68H457.72v8.43h12.1v5.68h-12.1v9.9h17.19v5.68Z"/><path class="cls-2" d="M481.09,237.19V201.82h6.76v15.72l11.81-15.72h7.79l-10,13.27,11.66,22.1h-7.5l-8.77-16.8-4.95,6.17v10.63Z"/></svg>